<?xml version="1.0" encoding="UTF-8" standalone="no"?><!DOCTYPE svg PUBLIC "-//W3C//DTD SVG 1.1//EN" "http://www.w3.org/Graphics/SVG/1.1/DTD/svg11.dtd"><svg width="500" height="500" viewBox="0 0 285 202" version="1.1" xmlns="http://www.w3.org/2000/svg" xmlns:xlink="http://www.w3.org/1999/xlink" xml:space="preserve" xmlns:serif="http://www.serif.com/" style="fill-rule:evenodd;clip-rule:evenodd;stroke-linejoin:round;stroke-miterlimit:2;"><g id="BACKGROUND"></g><g><rect id="Artboard1" x="0" y="0" width="284.485" height="201.957" style="fill:none;"/><g id="Artboard11" serif:id="Artboard1"><g id="OBJECTS"><path d="M214.725,146.881c0.492,0.322 2.821,5.011 5.935,5.594c3.113,0.584 14.398,1.508 15.907,-0.535c1.507,-2.043 0.777,-9.479 -1.996,-10.89c-2.773,-1.41 -12.209,-0.542 -12.501,-0.542c-0.291,0 -3.746,-1.41 -4.038,-1.07c-0.291,0.341 -3.307,7.443 -3.307,7.443" style="fill:#bfbcd9;"/><path d="M61.692,146.881c-0.492,0.322 -2.821,5.011 -5.934,5.594c-3.114,0.584 -14.399,1.508 -15.907,-0.535c-1.508,-2.043 -0.778,-9.479 1.995,-10.89c2.773,-1.41 12.209,-0.542 12.501,-0.542c0.292,0 3.746,-1.41 4.038,-1.07c0.291,0.341 3.307,7.443 3.307,7.443" style="fill:#bfbcd9;"/><path d="M229.92,76.325l-12.845,0c-6.163,0 -11.204,-5.042 -11.204,-11.204l0,-26.285c0,-6.163 5.041,-11.204 11.204,-11.204l12.845,0c6.162,0 11.204,5.041 11.204,11.204l0,26.285c0,6.162 -5.042,11.204 -11.204,11.204" style="fill:#404041;"/><path d="M60.523,76.325l-12.845,0c-6.162,0 -11.204,-5.042 -11.204,-11.204l0,-26.285c0,-6.163 5.042,-11.204 11.204,-11.204l12.845,0c6.163,0 11.204,5.041 11.204,11.204l0,26.285c0,6.162 -5.041,11.204 -11.204,11.204" style="fill:#404041;"/><path d="M233.745,47.867c0,-0.34 -0.482,-3.502 -0.915,-4.719c-0.433,-1.215 -3.947,-2.432 -5.44,-2.578c-1.492,-0.146 -19.281,-0.802 -20.268,-0.559c-0.987,0.243 -1.588,0.9 -1.854,0.924c-0.229,0.021 -53.111,0.06 -67.28,0.071c-14.169,-0.011 -67.051,-0.05 -67.281,-0.071c-0.265,-0.024 -0.866,-0.681 -1.853,-0.924c-0.987,-0.243 -18.776,0.413 -20.268,0.559c-1.493,0.146 -5.007,1.363 -5.44,2.578c-0.434,1.217 -0.915,4.379 -0.915,4.719l191.514,0Z" style="fill:#404041;"/><path d="M190.183,179.989c0,0 3.892,-1.508 4.572,-2.092c0.682,-0.583 24.761,-35.267 25.247,-37.7c0.487,-2.432 0.973,-5.447 1.751,-6.323c0.779,-0.876 14.691,-7.686 16.248,-10.897c1.557,-3.21 1.557,-3.891 1.557,-3.891c0,0 2.772,-8.514 3.551,-12.698c0.778,-4.183 0.389,-24.761 1.167,-26.317c0.779,-1.557 1.46,-3.016 1.557,-3.989c0.097,-0.973 -0.681,-14.496 -3.016,-21.015c-2.335,-6.518 -5.935,-8.075 -7.297,-8.366c-1.362,-0.292 -2.043,-0.487 -2.043,-0.487c0,0 -21.549,-1.994 -23.835,-1.264c-2.287,0.729 -3.941,1.265 -5.011,1.459c-0.546,0.099 -33.56,0.186 -66.059,0.143c-32.5,0.043 -65.514,-0.044 -66.06,-0.143c-1.07,-0.194 -2.724,-0.73 -5.01,-1.459c-2.286,-0.73 -23.836,1.264 -23.836,1.264c0,0 -0.681,0.195 -2.043,0.487c-1.362,0.291 -4.962,1.848 -7.296,8.366c-2.335,6.519 -3.114,20.042 -3.016,21.015c0.097,0.973 0.778,2.432 1.556,3.989c0.779,1.556 0.389,22.134 1.168,26.317c0.778,4.184 3.551,12.698 3.551,12.698c0,0 0,0.681 1.557,3.891c1.557,3.211 15.469,10.021 16.247,10.897c0.779,0.876 1.265,3.891 1.752,6.323c0.486,2.433 24.565,37.117 25.246,37.7c0.681,0.584 4.573,2.092 4.573,2.092c9.034,1.94 30.348,2.839 51.611,2.917c21.262,-0.078 42.577,-0.977 51.611,-2.917" style="fill:#bfbcd9;"/><path d="M243.964,82.04c0.074,-1.026 0.168,-1.727 0.291,-1.969c0.79,-1.557 1.48,-3.016 1.579,-3.989c0,0 -8.292,-2.264 -48.799,-2.441c-28.882,-0.126 -49.195,0.307 -58.477,0.167c-9.283,0.14 -29.596,-0.293 -58.478,-0.167c-40.507,0.177 -48.799,2.441 -48.799,2.441c0.099,0.973 0.789,2.432 1.579,3.989c0.123,0.242 0.217,0.943 0.291,1.969c1.673,-0.474 3.725,-1.133 6.243,-2.038c11.559,-4.151 79.575,-4.272 99.164,-4.219c19.588,-0.053 87.604,0.068 99.163,4.219c2.518,0.905 4.57,1.564 6.243,2.038" style="fill:#bfbcd9;"/><path d="M241.394,113.153c0.688,-2.376 1.385,-4.969 1.716,-6.765c0.099,-0.531 0.178,-1.329 0.244,-2.319c-2.193,-1.318 -5.928,-3.168 -11.44,-4.639c-9.665,-2.578 -23.968,-4.037 -27.641,-3.94c-3.673,0.097 -10.486,3.502 -10.486,3.502c-18.193,-2.79 -36.832,-6.399 -55.239,-5.948c-18.406,-0.451 -37.046,3.158 -55.239,5.948c0,0 -6.813,-3.405 -10.486,-3.502c-3.673,-0.097 -17.976,1.362 -27.64,3.94c-5.513,1.471 -9.248,3.321 -11.441,4.639c0.066,0.99 0.146,1.788 0.244,2.319c0.332,1.796 1.029,4.389 1.716,6.765l40.11,-0.717l62.736,0.105l62.736,-0.105l40.11,0.717Z" style="fill:#bfbcd9;"/><path d="M68.371,143.41c-10.529,-2.832 -6.846,-16.276 -3.816,-27.335c0.279,-1.019 0.553,-2.017 0.825,-3.049l0.469,0.124c-0.249,0.944 -0.535,1.988 -0.827,3.052c-2.972,10.848 -6.584,24.034 3.475,26.739l-0.126,0.469Z" style="fill:#4b5930;"/><path d="M207.188,151.384c2.666,-5.643 0.79,-8.075 0.198,-8.27c-0.593,-0.194 -38.213,1.557 -65.861,1.557c-1.203,0 -2.44,-0.003 -3.703,-0.008c-1.262,0.005 -2.5,0.008 -3.703,0.008c-27.647,0 -65.268,-1.751 -65.86,-1.557c-0.593,0.195 -2.469,2.627 0.197,8.27c2.028,4.291 13.509,25.77 17.423,26.125c1.605,0.146 4.448,0.401 8.744,0.775c5.658,0.493 25.507,0.691 43.199,0.708c17.692,-0.017 37.542,-0.215 43.2,-0.708c4.295,-0.374 7.138,-0.629 8.743,-0.775c3.915,-0.355 15.396,-21.834 17.423,-26.125" style="fill:#231f20;"/><path d="M114.692,144.452c-23.134,-0.464 -45.972,-1.488 -46.433,-1.337c-0.593,0.195 -2.469,2.627 0.197,8.27c2.028,4.29 13.509,25.77 17.423,26.125c1.605,0.146 4.448,0.401 8.744,0.775c5.658,0.493 25.507,0.69 43.199,0.708c3.747,-0.004 7.59,-0.016 11.374,-0.037l-34.504,-34.504Z" style="fill:#58595b;"/><path d="M207.323,143.048c10.059,-2.705 6.446,-15.891 3.474,-26.739c-0.291,-1.064 -0.578,-2.108 -0.827,-3.052l0.469,-0.123c0.273,1.031 0.546,2.029 0.825,3.048c3.031,11.06 6.714,24.504 -3.816,27.335l-0.125,-0.469Z" style="fill:#4b5930;"/><path d="M205.971,112.1c0.048,0.146 0.112,0.703 0.112,0.703l-135.021,0.321c0,0 0.714,-1.043 1.137,-0.902c0.422,0.14 133.772,-0.122 133.772,-0.122" style="fill:#4b5930;"/><path d="M190.545,72.189l-100.494,0c-0.831,0.083 -1.989,-0.159 -2.739,-0.374c-1.429,-0.41 -2.807,-1.097 -3.937,-2.069c-2.181,-1.877 -8.776,-12.077 -8.844,-14.833c-0.024,-0.933 0.299,-1.8 0.925,-2.49c0.881,-0.971 2.54,-1.638 3.841,-1.638l122.002,0c0.993,0 2.278,0.436 3.088,0.988c1.069,0.728 1.711,1.827 1.679,3.14c-0.069,2.756 -6.664,12.956 -8.845,14.833c-1.13,0.972 -2.507,1.659 -3.937,2.069c-0.75,0.215 -1.909,0.457 -2.739,0.374" style="fill:#bfbcd9;"/><path d="M190.646,70.535c0.584,0.097 3.405,-0.243 5.497,-2.043c2.092,-1.8 8.221,-11.675 8.27,-13.621c0.048,-1.945 -2.53,-2.432 -3.113,-2.432l-122.002,0c-0.584,0 -3.162,0.487 -3.113,2.432c0.048,1.946 6.177,11.821 8.269,13.621c2.092,1.8 4.913,2.14 5.497,2.043l100.695,0Z" style="fill:#404041;"/><g><clipPath id="_clip1"><path d="M89.951,70.535l100.695,0c0.584,0.097 3.406,-0.243 5.497,-2.043c2.092,-1.8 8.221,-11.675 8.27,-13.621c0.049,-1.945 -2.53,-2.432 -3.114,-2.432l-122.001,0c-0.584,0 -3.162,0.487 -3.113,2.432c0.049,1.946 6.178,11.821 8.269,13.621c1.883,1.621 4.359,2.058 5.259,2.058c0.1,0 0.18,-0.005 0.238,-0.015Z" clip-rule="nonzero"/></clipPath><g clip-path="url(#_clip1)"><rect x="73.089" y="66.095" width="134.421" height="1.236" style="fill:#808184;"/><rect x="73.089" y="62.616" width="134.421" height="1.236" style="fill:#808184;"/><rect x="73.089" y="59.137" width="134.421" height="1.236" style="fill:#808184;"/><rect x="73.089" y="55.657" width="134.421" height="1.236" style="fill:#808184;"/></g></g><path d="M196.894,110.521c-0.559,-1.435 -3.973,-8.02 -4.67,-9.193c-1.384,-2.333 -45.896,-6.667 -45.677,-5.79c0.097,0.39 5.118,10.476 6.47,10.556c1.352,0.081 44.001,3.438 43.877,4.427" style="fill:#6d6e70;"/><clipPath id="_clip2"><path d="M196.88,110.482c0.005,0.013 0.01,0.026 0.015,0.038c0.001,-0.012 -0.004,-0.025 -0.015,-0.038Zm-4.655,-9.155c-1.385,-2.332 -45.897,-6.666 -45.677,-5.789c0.097,0.389 5.117,10.475 6.469,10.556c1.336,0.08 42.951,3.355 43.863,4.388c-0.603,-1.508 -3.965,-7.992 -4.655,-9.155Z" clip-rule="nonzero"/></clipPath><g clip-path="url(#_clip2)"><path d="M196.797,111.397c-0.559,-1.435 -3.973,-8.021 -4.67,-9.194c-1.384,-2.332 -45.896,-6.666 -45.677,-5.789c0.097,0.389 5.118,10.475 6.47,10.556c1.352,0.081 44.001,3.438 43.877,4.427" style="fill:#231f20;"/></g><path d="M80.25,110.521c0.559,-1.435 3.973,-8.02 4.67,-9.193c1.384,-2.333 45.896,-6.667 45.677,-5.79c-0.097,0.39 -5.118,10.476 -6.47,10.556c-1.352,0.081 -44.001,3.438 -43.877,4.427" style="fill:#6d6e70;"/><clipPath id="_clip3"><path d="M80.266,110.482c-0.011,0.013 -0.016,0.026 -0.015,0.038c0.005,-0.012 0.01,-0.025 0.015,-0.038Zm43.862,-4.388c1.352,-0.081 6.372,-10.167 6.469,-10.556c0.22,-0.877 -44.292,3.457 -45.677,5.789c-0.69,1.163 -4.052,7.647 -4.654,9.155c0.911,-1.033 42.527,-4.308 43.862,-4.388Z" clip-rule="nonzero"/></clipPath><g clip-path="url(#_clip3)"><path d="M80.153,111.397c0.56,-1.435 3.973,-8.021 4.67,-9.194c1.384,-2.332 45.896,-6.666 45.677,-5.789c-0.097,0.389 -5.118,10.475 -6.47,10.556c-1.352,0.081 -44.001,3.438 -43.877,4.427" style="fill:#231f20;"/></g><path d="M234.392,69.05c0,0 -0.194,-10.313 -1.557,-12.064c-1.362,-1.751 -11.48,-2.432 -14.301,-0.973c-2.822,1.46 -7.346,7.686 -7.686,8.902c-0.34,1.216 0.292,1.606 0.584,1.752c1.433,0.716 21.065,3.293 22.96,2.383" style="fill:#404041;"/><path d="M225.052,57.011c-2.72,0 -4.937,2.054 -4.937,4.573c0,2.518 2.217,4.573 4.937,4.573c2.719,0 4.938,-2.055 4.938,-4.573c0,-2.519 -2.219,-4.573 -4.938,-4.573" style="fill:#fff;"/><path d="M42.753,68.404c0,0 0.194,-10.313 1.556,-12.064c1.362,-1.751 11.48,-2.432 14.302,-0.973c2.821,1.46 7.345,7.687 7.686,8.902c0.34,1.217 -0.292,1.606 -0.584,1.752c-1.433,0.716 -21.065,3.293 -22.96,2.383" style="fill:#404041;"/><path d="M52.092,56.365c-2.72,0 -4.937,2.054 -4.937,4.573c0,2.518 2.217,4.573 4.937,4.573c2.719,0 4.937,-2.055 4.937,-4.573c0,-2.519 -2.218,-4.573 -4.937,-4.573" style="fill:#fff;"/><path d="M239.642,118.827c0.467,-1.452 2.769,-8.686 3.467,-12.439c0.033,-0.174 0.064,-0.38 0.092,-0.609c-5.295,-5.078 -32.108,-10.014 -41.148,-8.148c-1.31,0.27 -7.102,3.891 -6.81,5.059c0.292,1.168 5.837,10.216 6.373,10.507c0.535,0.292 8.172,-0.924 19.263,1.314c6.806,1.373 14.123,3.149 18.763,4.316" style="fill:#e6e7e8;"/><path d="M215.69,112.694c0.553,-1.049 0.866,-2.243 0.866,-3.511c0,-4.165 -3.376,-7.54 -7.54,-7.54c-4.164,0 -7.54,3.375 -7.54,7.54c0,1.037 0.21,2.026 0.589,2.926c0.049,0.116 0.101,0.231 0.156,0.345c0.058,0.121 0.12,0.241 0.185,0.359c0.079,0.144 0.163,0.284 0.251,0.422c1.367,-0.045 3.988,-0.201 7.548,-0.039c1.486,0.067 3.135,0.191 4.925,0.4c0.207,-0.286 0.394,-0.587 0.56,-0.902" style="fill:#d0d2d3;"/><path d="M227.452,107.188c-3.128,0 -5.672,2.502 -5.739,5.614c-0.001,0.042 -0.001,0.084 -0.001,0.126c0,0.633 0.102,1.243 0.292,1.813c3.242,0.669 6.56,1.416 9.616,2.134c0.957,-1.011 1.551,-2.37 1.571,-3.868c0.001,-0.026 0.001,-0.053 0.001,-0.079c0,-3.17 -2.57,-5.74 -5.74,-5.74" style="fill:#d0d2d3;"/><path d="M37.395,118.827c-0.467,-1.452 -2.77,-8.686 -3.468,-12.439c-0.032,-0.174 -0.063,-0.38 -0.091,-0.609c5.295,-5.078 32.108,-10.014 41.147,-8.148c1.311,0.27 7.102,3.891 6.811,5.059c-0.292,1.168 -5.838,10.216 -6.373,10.507c-0.535,0.292 -8.173,-0.924 -19.264,1.314c-6.805,1.373 -14.122,3.149 -18.762,4.316" style="fill:#e6e7e8;"/><path d="M61.346,112.694c-0.553,-1.049 -0.866,-2.243 -0.866,-3.511c0,-4.165 3.376,-7.54 7.54,-7.54c4.164,0 7.54,3.375 7.54,7.54c0,1.037 -0.21,2.026 -0.589,2.926c-0.049,0.116 -0.101,0.231 -0.156,0.345c-0.058,0.121 -0.12,0.241 -0.185,0.359c-0.079,0.144 -0.163,0.284 -0.251,0.422c-1.367,-0.045 -3.988,-0.201 -7.548,-0.039c-1.486,0.067 -3.135,0.191 -4.925,0.4c-0.207,-0.286 -0.394,-0.587 -0.56,-0.902" style="fill:#d0d2d3;"/><path d="M49.584,107.188c3.128,0 5.672,2.502 5.739,5.614c0.001,0.042 0.001,0.084 0.001,0.126c0,0.633 -0.102,1.243 -0.292,1.813c-3.243,0.669 -6.56,1.416 -9.616,2.134c-0.957,-1.011 -1.551,-2.37 -1.571,-3.868c-0.001,-0.026 -0.001,-0.053 -0.001,-0.079c0,-3.17 2.57,-5.74 5.74,-5.74" style="fill:#d0d2d3;"/></g></g></g></svg>