<svg viewBox="0 0 358 267" xmlns="http://www.w3.org/2000/svg" fill-rule="evenodd" clip-rule="evenodd" stroke-linejoin="round" stroke-miterlimit="2">
  <path fill="none" d="M0 0h357.131v266.513H0z"/>
  <g fill-rule="nonzero">
    <path d="M107.9 263.569c-11.7.001-19.974-4.08-19.974-4.08-42.585-15.132-74.856-41.86-74.856-41.86-21.016-16.466-6.807-18.481-1.408-27.133 1.07 2.125 2.417 4.117 4.095 5.923 0 0 .146.165.435.475.256.303.52.603.793.896 0 0 25.99 29.178 68.575 44.314 0 0 8.273 4.08 19.971 4.08 8.521 0 18.86-2.165 29.144-9.649l143.901-91.882c1.783 4.331 4.711 7.607 8.645 9.162 1.546.611 3.063 1.053 4.548 1.311l-154.727 98.796c-10.282 7.482-20.621 9.647-29.142 9.647zm203.329-120.868c.645-1.287 1.266-2.679 1.86-4.184 2.294-5.804 3.883-12.452 4.466-18.753l16.839-10.752s7.22-4.289 11.572-12.478c4.115 2.248 6.689 6.786 6.689 6.786 6.979 10.055-15.893 23.078-15.893 23.078l-25.533 16.303z" fill="#999b9e"/>
    <path d="M10.909 170c-.763-6.328-.518-12.289.049-17.264-.218-.762-.401-1.522-.531-2.28-.862 5.536-1.473 12.899-.519 20.808 2.777 5.293 7.118 10.551 12.181 15.532v-2.274c-4.628-4.679-8.59-9.584-11.18-14.522z" fill="#fff"/>
    <path d="M67.412 98.341c-17.206 20.434-51.716 63.975-51.716 63.975s-9.018-9.614-3.969-16.523l55.685-47.452z" fill="#008b95"/>
    <path d="M168.21 156.348c12.959-12.674 15.882-23.875 23.219-40.336 7.441-16.697 16.913-20.82 16.913-20.82 58.741-46.903 84.677-37.014 84.677-37.014 18.274 3.899 44.066-14.151 44.066-14.151L255.26 6.851c-7.844-3.386-12.498-1.5-12.498-1.5-14.902 5.385-28.359 3.964-38.704 2.543-6.353-.873-11.532-1.745-15.15-1.041-51.854 10.092-80.395 42.185-80.395 42.185L67.412 98.341 17.13 144.463c-18.603 29.625 53.646 61.71 53.646 61.71 20.73 17.514 40.15-1.106 40.15-1.106l57.284-48.719z" fill="#00b9c5"/>
    <path d="M235.565 7.473c2.357-.542 7.367-2.25 9.809-3.131 0 0 4.65-1.888 12.494 1.497l83.449 38.089s-7.86 2.637-13.358 5.605l-92.394-42.06z" fill="#0099a4"/>
    <path d="M208.508 8.346c-8.419-.999-14.96-3.707-19.366-2.705-22.529 5.131-41.27 15.387-54.838 23.792l.216.147c27.747 19.351 55.123 39.241 82.805 58.691 52.405-38.96 75.694-30.093 75.694-30.093 5.097 1.087 8.005 1.112 13.55-.346L208.508 8.346z" fill="#414042"/>
    <path d="M115.241 42.078c32.622 42.617 96.64 52.764 88.113 51.192 0 0 50.449-37.268 84.962-36.931L189.142 5.641s-40.705 7.585-73.901 36.437z" fill="#00b9c5"/>
    <path d="M215.072 83.447s42.781-40.443 79.389-31.727c18.27 3.897 42.169-6.023 42.169-6.023 11.325-1.938 11.318 35.976 11.318 35.976.455 16.914-14.781 25.969-14.781 25.969l-199.72 127.523c-24.4 17.758-49.114 5.569-49.114 5.569-42.587-15.134-68.576-44.315-68.576-44.315-10.941-11.773-7.779-31.47-5.784-44.294 4.226 24.345 63.54 54.232 63.54 54.232 18.07 9.132 30.826-3.264 30.826-3.264l51.585-45.133s10.32-7.958 12.324-12.743l31.02-43.449s7.299-13.364 15.804-18.321z" fill="#00b9c5"/>
    <path d="M345.966 96.534c-.508-.277-1.037-.519-1.59-.714 2.16-3.829 3.722-8.559 3.572-14.147.178-3.503.283-7.02.187-10.536-.05-2.061-.137-4.123-.278-6.186 1.321 9.035 1.32 18.092 1.32 18.092.143 5.273-1.24 9.782-3.211 13.491z" fill="#e7e8e9"/>
    <path d="M105.531 246.184c-11.698 0-19.971-4.08-19.971-4.08-42.585-15.136-68.575-44.314-68.575-44.314-.273-.293-.537-.593-.793-.896 3.558 3.824 28.749 29.841 68.141 43.84 0 0 8.271 4.081 19.971 4.08 8.521 0 18.861-2.166 29.143-9.649l144.49-92.258c.193.599.406 1.181.639 1.746l-143.901 91.882c-10.284 7.484-20.623 9.649-29.144 9.649zm212.024-126.42c.058-.626.106-1.247.144-1.865l11.235-6.985.469.023c.014-.308.027-.613.038-.916l3.726-2.379s6.832-4.061 11.209-11.822c.553.195 1.082.437 1.59.714-4.352 8.189-11.572 12.478-11.572 12.478l-16.839 10.752z" fill="#8f9194"/>
    <path d="M17.44 166.212c-2.972-3.581-5.265-7.185-6.55-10.709.038-.248.076-.495.114-.739.434 1.185 1 2.306 1.586 3.303 1.066 2.501 2.616 5.036 4.534 7.57.103.191.209.384.316.575z" fill="#e7e8e9"/>
    <path d="M12.59 158.067c-.586-.997-1.152-2.118-1.586-3.303.067-.43.133-.853.197-1.269.262 1.506.734 3.032 1.389 4.572z" fill="#00818a"/>
    <path d="M19.692 168.783c-.786-.855-1.539-1.711-2.252-2.571-.107-.191-.213-.384-.316-.575.796 1.05 1.654 2.099 2.568 3.146z" fill="#00a9b5"/>
    <path d="M104.304 244.814c-11.7.001-19.971-4.08-19.971-4.08-39.392-13.999-64.583-40.016-68.141-43.84-9.47-11.238-7.219-28.929-5.302-41.391 1.285 3.524 3.578 7.128 6.55 10.709.713.86 1.466 1.716 2.252 2.571 17.465 20.006 55.049 38.946 55.049 38.946 4.864 2.457 9.342 3.355 13.291 3.355 10.722 0 17.537-6.622 17.537-6.622l28.831-25.226 1.122-.938c-1.794 4.025-3.259 8.264-3.797 12.559-.273 2.166-.655 5.856 2.075 6.648.312.091.633.133.961.133 2.314-.001 4.94-2.057 6.556-3.214 3.396-2.432 6.48-5.296 9.544-8.123 8.663-7.988 18.123-15.663 28.117-21.916.443-.277.888-.549 1.337-.815.205.061.412.125.62.192-3.035 2.138-5.668 4.017-7.826 5.568-2.137 1.517-3.784 2.759-4.921 3.584-1.133.831-1.737 1.275-1.737 1.275s.658-.36 1.89-1.033c1.23-.681 3.053-1.646 5.332-2.939 2.651-1.483 5.952-3.343 9.766-5.532.55.229 1.104.48 1.659.754 3.254 1.606 6.517 3.993 9.068 7.549 2.551 3.557 4.4 8.287 4.8 14.627l.468-.03.253.395 77.118-49.439-.507-.79-31.452 20.164v-7.563c2.713-2.106 5.408-4.229 8.113-6.325 8.23-6.379 16.219-13.073 24.353-19.579-.246 1.546-.401 3.039-.487 4.46-.603 5.115-.2 9.935 1.112 13.999l-144.49 92.258c-10.282 7.483-20.622 9.649-29.143 9.649zm95.541-58.049c-.502-6.032-2.324-10.665-4.828-14.201 1.84.465 3.693.674 5.546.674 8.683 0 17.35-4.587 24.522-8.911 6.564-3.962 12.744-8.548 18.822-13.248v7.437l-44.062 28.249zm-5.27-14.804c-2.889-3.82-6.568-6.278-10.121-7.861 2.492-1.433 5.188-3 8.051-4.685 1.354-.793 2.747-1.609 4.175-2.449 2.002-.418 4.04-.698 6.111-.821-2.328 5.467-6.471 9.989-8.2 15.74-.007.025-.012.051-.016.076zm-12.686-8.87c-.16-.055-.318-.108-.476-.16.981-.559 1.976-1.091 2.983-1.596-.861.601-1.698 1.187-2.507 1.756zm147.552-53.07c.034-.961.052-1.902.052-2.825.001-8.185-1.334-14.915-3.304-20.386 1.856-2.803 3.239-5.894 3.92-9.247.05-.259-.072-.623-.379-.664-.595-.083-1.182-.12-1.763-.12-2.097 0-4.108.491-6.097 1.122-.295-.469-.593-.922-.893-1.359.116-.083.23-.165.343-.246 2.136-1.517 3.783-2.76 4.92-3.586 1.132-.832 1.736-1.275 1.736-1.275s-.658.359-1.891 1.032c-1.23.68-3.053 1.645-5.333 2.937-.136.076-.274.153-.414.232-.175-.242-.35-.479-.526-.71-.47-.619-.939-1.202-1.405-1.749 2.235-1.927 4.606-3.747 6.499-5.934 2.653-3.065 3.964-7.533 1.385-11.036-1.469-1.995-3.829-3.134-6.295-3.862 10.077-2.05 17.863-5.278 17.863-5.278.283-.049.557-.072.825-.072 1.015 0 1.931.336 2.759.945.588.902 1.083 1.945 1.523 3.005 1.27 3.102 2.073 6.497 2.72 9.899.637 3.413 1.093 6.878 1.443 10.355.328 3.479.667 6.969.819 10.474.15 5.588-1.412 10.318-3.572 14.147-4.377 7.761-11.209 11.822-11.209 11.822l-3.726 2.379zm-.896-1.641c-1.416-8.026-4.117-12.876-7.34-15.66.086-.083.173-.168.259-.252 1.489-1.454 2.862-3.024 4.067-4.704 1.81 5.252 3.022 11.665 3.023 19.432 0 .391-.003.786-.009 1.184zm-15.958-28.357c1.202-2.463 3.071-4.413 5.114-6.229.598.704 1.204 1.469 1.807 2.296.002.003.004.005.006.008-2.011 1.126-4.343 2.431-6.927 3.925zm4.061-.383c1.287-.914 2.477-1.769 3.566-2.551.246.36.492.731.735 1.113-1.431.479-2.857 1.003-4.301 1.438z" fill="#00a9b5"/>
    <path d="M146.892 227.015s-9.044-30.483 20.68-49.003c0 0 25.698-16.834 30.218 17.356l-50.898 31.647z" fill="#0a0d10"/>
    <path d="M254.94 102.666l-83.492 52.086 34.272-53.342c.504-.782 14.565-21.345 35.968-31.21 0 0 25.015-14.752 42.31-13.733 14.557.861 22.909 7.225 23.241 7.532l2.614 2.439-54.913 36.228-19.266-28.587 19.266 28.587z" fill="#004d53"/>
    <path d="M240.836 108.002V74.919c-20.908 9.635-32.748 28.012-32.748 28.012l-27.474 42.764 60.222-37.693zM247.214 72.147v32.247l58.105-38.338s-20.065-18.727-58.105 6.091z" fill="#414042"/>
    <path d="M180.614 145.695l27.474-42.764h.001c.036-.056 2.812-4.342 8.005-9.836.716 2.707 2.063 5.156 4.329 6.958 2.682 2.134 6.146 2.769 9.524 2.769.857 0 1.709-.041 2.541-.109 2.838-.234 5.622-.871 8.348-1.725v7.014l-60.222 37.693zM247.214 104.394v-5.792c1.038-.442 2.068-.895 3.083-1.356 5.578-2.536 11.415-5.431 16.384-9.045 6.696-4.872 12.173-11.977 16.743-18.79 1.735-2.581 3.89-6.074 5.565-9.831 10.754 1.305 16.3 6.448 16.33 6.476l-51.951 34.278-6.154 4.06z" fill="#333132"/>
    <path d="M103.518 228.085s-1.665-.006-4.58-.017c-1.453-.103-3.231-.191-5.261-.386-1.011-.125-2.088-.257-3.222-.396-1.141-.114-2.31-.406-3.548-.615-.616-.117-1.246-.237-1.888-.359-.636-.15-1.283-.305-1.941-.461-1.319-.31-2.684-.624-4.061-1.044-1.383-.399-2.815-.779-4.241-1.282-1.437-.473-2.903-.961-4.36-1.55-1.467-.562-2.959-1.135-4.435-1.795-.744-.32-1.491-.642-2.242-.965-.737-.352-1.478-.707-2.222-1.062-2.983-1.41-5.93-3.007-8.845-4.655-1.452-.835-2.871-1.723-4.298-2.585-1.397-.911-2.812-1.78-4.172-2.709-1.364-.923-2.72-1.835-4.016-2.796-1.316-.936-2.59-1.894-3.835-2.844-2.504-1.887-4.835-3.823-7.016-5.692-2.175-1.874-4.196-3.683-6.022-5.396-1.838-1.7-3.46-3.324-4.872-4.787-1.418-1.458-2.623-2.757-3.606-3.835-1.958-2.163-2.989-3.474-2.989-3.474s1.154 1.202 3.247 3.225c2.082 2.034 5.151 4.838 8.914 8.099 1.879 1.634 3.956 3.355 6.185 5.132 2.234 1.771 4.628 3.587 7.131 5.427 2.497 1.849 5.154 3.65 7.865 5.457 1.351.911 2.756 1.762 4.142 2.653 1.416.844 2.826 1.71 4.263 2.529 2.868 1.645 5.769 3.241 8.701 4.651.732.357 1.46.712 2.184 1.066.734.333 1.465.664 2.191.993 1.444.68 2.903 1.273 4.338 1.855 1.424.615 2.868 1.103 4.261 1.635 1.389.55 2.784.977 4.134 1.422 1.344.467 2.678.828 3.968 1.182.645.18 1.279.356 1.901.529.629.144 1.246.286 1.851.425 2.414.586 4.657.972 6.646 1.345 1.991.318 3.743.513 5.186.706 2.904.239 4.564.374 4.564.374z" fill="#008e98"/>
    <path d="M102.095 233.147s-1.665-.007-4.58-.018c-1.454-.102-3.232-.189-5.26-.385-1.012-.125-2.088-.257-3.222-.397-1.142-.113-2.31-.405-3.548-.614-.617-.117-1.247-.237-1.888-.36-.635-.15-1.283-.304-1.941-.46-1.318-.31-2.684-.625-4.061-1.044-1.382-.4-2.815-.781-4.241-1.283-1.436-.472-2.903-.961-4.36-1.549-1.467-.563-2.959-1.135-4.435-1.796-.742-.32-1.49-.641-2.24-.964-.738-.353-1.479-.707-2.223-1.063-2.983-1.411-5.93-3.007-8.845-4.654-1.451-.835-2.871-1.724-4.298-2.586-1.396-.91-2.812-1.779-4.171-2.71-1.365-.922-2.72-1.834-4.016-2.795-1.316-.935-2.59-1.892-3.835-2.844-2.504-1.886-4.835-3.823-7.015-5.69-2.176-1.874-4.197-3.684-6.022-5.397-1.838-1.7-3.46-3.325-4.872-4.787-1.418-1.458-2.623-2.756-3.606-3.835-1.958-2.163-2.989-3.473-2.989-3.473s1.154 1.202 3.247 3.224c2.082 2.034 5.151 4.837 8.914 8.099 1.879 1.634 3.956 3.355 6.185 5.132 2.234 1.77 4.627 3.588 7.13 5.427 2.497 1.848 5.153 3.65 7.865 5.457 1.35.912 2.756 1.761 4.142 2.653 1.415.844 2.826 1.71 4.262 2.528 2.868 1.646 5.769 3.241 8.701 4.651.731.357 1.459.713 2.184 1.066.734.333 1.465.664 2.19.993 1.444.681 2.903 1.273 4.339 1.856 1.424.615 2.867 1.102 4.26 1.634 1.389.55 2.785.977 4.134 1.422 1.344.467 2.678.828 3.968 1.183.644.18 1.278.355 1.9.528.63.145 1.247.286 1.852.425 2.414.587 4.657.973 6.645 1.346 1.993.317 3.744.512 5.186.706 2.904.238 4.564.374 4.564.374z" fill="#008e98"/>
    <path d="M111.348 215.116l-3.501 2.474s-13.733 13.342-33.181 3.513c0 0-52.368-26.22-64.758-49.839-.954-7.909-.343-15.272.519-20.808 4.226 24.345 63.539 54.231 63.539 54.231 18.072 9.13 30.827-3.265 30.827-3.265l6.555-4.632s9.57.361 0 18.326z" fill="#bcbec0"/>
    <path d="M22.089 170.139c-5.993-6.351-10.52-13.101-11.662-19.683-.862 5.536-1.473 12.899-.519 20.808 2.777 5.293 7.118 10.551 12.181 15.532v-16.657zM111.306 196.741l-6.542 4.651s-12.717 12.433-30.817 3.356c0 0-.072-.036-.175-.093l.047 16.038c.562.305.879.471.879.471 19.477 9.77 33.169-3.614 33.169-3.614l3.495-2.487c9.512-17.991-.056-18.322-.056-18.322z" fill="#fff"/>
    <path d="M113.645 197.652c1.124 2.377 1.041 6.945-3.612 15.744l-3.497 2.486s-13.481 13.164-32.721 3.825l.004.986c.562.305.879.471.879.471 19.477 9.77 33.169-3.614 33.169-3.614l3.495-2.487c6.132-11.595 4.337-15.851 2.283-17.411z" fill="#008b95"/>
    <path d="M26.343 174.356v16.411c11.083 9.877 33.08 21.49 41.069 26.222v-16.015c-7.908-4.673-30.298-16.537-41.069-26.618z" fill="#a7a9ac"/>
    <path d="M243.907 151.079v-23.05c.313-.197.626-.394.939-.59v22.913c-.313.243-.626.485-.939.727zm0-29.298v-12.232l.939-.585v12.213c-.313.201-.626.403-.939.604z" fill="#008d97"/>
    <path d="M243.907 158.516v-7.437c.313-.242.626-.484.939-.727v7.563l-.939.601z" fill="#00828b"/>
    <path d="M243.907 68.955v-5.316c.312-.163.625-.324.939-.484v5.295c-.338.18-.65.348-.939.505z" fill="#008d97"/>
    <path d="M243.907 109.549V86.295l.939 1.392v21.277l-.939.585zm.939-21.862l-.939-1.392v-17.34c.289-.157.601-.325.939-.505v19.237z" fill="#003f44"/>
    <path d="M223.804 126.066l11.87-7.729v5.179l-11.87 8.291v-5.741zM290.409 84.038l11.87-7.728v5.178l-11.87 8.292v-5.742zM27.938 179.412s25.035 18.07 36.661 23.666v1.609s-23.904-11.797-36.661-23.852v-1.423zM27.938 182.098s25.035 18.071 36.661 23.666v1.608s-23.904-11.797-36.661-23.851v-1.423z" fill="#383b3e"/>
    <path d="M27.938 184.783s25.035 18.071 36.661 23.666v1.61s-23.904-11.797-36.661-23.85v-1.426zM27.938 187.47s25.035 18.07 36.661 23.667v1.609s-23.904-11.797-36.661-23.852v-1.424z" fill="#383b3e"/>
    <path d="M10.909 170c-.763-6.328-.518-12.289.049-17.264-.218-.762-.401-1.522-.531-2.28-.862 5.536-1.473 12.899-.519 20.808 2.777 5.293 7.118 10.551 12.181 15.532v-2.274c-4.628-4.679-8.59-9.584-11.18-14.522z" fill="#008b95"/>
    <path d="M67.412 98.341l-37.349 36.566s-18.071 16.348 0 33.15l43.752 25.602s15.487 9.301 28.28 0l62.25-43.203-96.933-52.115z" fill="#50c3c6"/>
    <path d="M108.513 48.289s24.451 34.194 88.694 52.321l-32.862 49.846s-74.704-7.038-96.933-52.115l41.101-50.052z" fill="#414042"/>
    <path d="M67.412 98.341l27.365-34.31c-.21.566-.408 1.135-.594 1.71l-26.771 32.6z" fill="#939598"/>
    <path d="M160.365 149.966c-15.754-2.198-73.81-12.807-92.953-51.625l26.771-32.6c-3.856 11.807-3.204 25.22 2.685 36.018 5.919 10.859 16.918 17.536 28.358 21.307 9.15 3.013 19.178 4.508 28.964 4.508 2.445 0 4.877-.093 7.273-.28 7.151-.557 14.175-2.352 20.427-5.746l-9.808 14.413-.132.194-.116.261c-.246.555-.851 1.471-1.456 2.274-.62.828-1.295 1.659-1.987 2.483-1.389 1.65-2.86 3.272-4.343 4.888-1.211 1.311-2.441 2.613-3.683 3.905z" fill="#333132"/>
    <path d="M10.427 150.456c1.022 4.344 3.295 8.247 5.951 11.755 2.681 3.51 5.749 6.708 9.009 9.686 6.542 5.945 13.773 11.094 21.223 15.852 3.73 2.374 7.53 4.64 11.379 6.816 3.854 2.169 7.735 4.291 11.673 6.293 1.969.996 3.946 1.997 5.932 2.89l.756.342.722.281c.476.194.961.377 1.469.534.499.171 1 .334 1.509.46.506.143 1.014.276 1.528.374 2.047.438 4.133.634 6.204.565 2.071-.092 4.128-.418 6.11-1.018 1.985-.584 3.901-1.418 5.691-2.461.894-.521 1.758-1.096 2.569-1.718.403-.308.803-.635 1.151-.953.484-.447.857-.75 1.29-1.132l10.07-8.731 20.165-17.426 10.102-8.691 5.052-4.344 2.525-2.173 1.263-1.086.506-.438.584-.577c3.125-3.105 6.21-6.272 9.188-9.495 1.483-1.616 2.954-3.238 4.343-4.888.692-.824 1.367-1.655 1.987-2.483.605-.803 1.21-1.719 1.456-2.274l.116-.261.132-.194 12.715-18.686c4.245-6.225 8.46-12.469 12.744-18.667l-.177.299c1.608-3.054 3.309-5.866 5.196-8.666 1.884-2.781 3.916-5.482 6.209-8.026 1.141-1.274 2.373-2.492 3.675-3.66.314-.3.68-.563 1.017-.846l.904-.73c.676-.57 1.311-1.081 1.971-1.604 2.617-2.066 5.293-4.017 8.026-5.895 5.463-3.749 11.152-7.176 17.08-10.173 5.923-3.001 12.078-5.6 18.47-7.57 6.384-1.966 13.029-3.297 19.794-3.559 3.378-.137 6.782.04 10.148.512 1.683.237 3.354.572 5.01.968.579.102 1.592.342 2.253.413l1.107.157 1.155.111c3.086.281 6.244.171 9.389-.138 3.147-.335 6.292-.879 9.404-1.608 3.114-.722 6.205-1.596 9.255-2.598 3.038-1.005 6.094-2.138 8.971-3.411l.217-.095.153-.028c1.127-.202 2.428-.095 3.499.425 1.081.501 1.91 1.267 2.547 2.064 1.273 1.612 2.005 3.355 2.595 5.092 1.124 3.494 1.664 7.019 2.063 10.538.385 3.52.577 7.04.663 10.557.096 3.516-.009 7.033-.187 10.536-.152-3.505-.491-6.995-.819-10.474-.35-3.477-.806-6.942-1.443-10.355-.647-3.402-1.45-6.797-2.72-9.899-.635-1.532-1.386-3.028-2.367-4.114-.483-.544-1.022-.946-1.551-1.149-.529-.215-1.06-.215-1.646-.09l.369-.123c-3.052 1.451-6.089 2.669-9.213 3.803-3.116 1.123-6.283 2.12-9.511 2.928-3.223.822-6.506 1.461-9.838 1.883-3.335.396-6.726.588-10.146.349l-1.282-.1-1.318-.16c-.454-.051-.873-.115-1.262-.19l-1.304-.234c-1.524-.33-3.06-.607-4.611-.794-3.101-.372-6.242-.461-9.379-.284-6.279.32-12.525 1.641-18.575 3.588-6.056 1.948-11.935 4.514-17.611 7.478-5.67 2.978-11.165 6.323-16.447 9.97-2.637 1.828-5.227 3.733-7.721 5.719-.617.492-1.25 1.007-1.818 1.491l-.995.812c-.286.243-.588.454-.861.721-1.122 1.015-2.21 2.094-3.24 3.254-2.068 2.31-3.962 4.838-5.725 7.463-1.752 2.613-3.416 5.402-4.837 8.124l-.086.166-.091.134c-4.225 6.238-8.517 12.43-12.781 18.642l-12.809 18.622.248-.455c-.676 1.47-1.374 2.374-2.087 3.353-.714.948-1.444 1.838-2.183 2.712-1.479 1.743-2.994 3.411-4.536 5.048-3.085 3.27-6.234 6.436-9.441 9.561l-.607.588-.197.18-.08.068-.159.133-.319.268-1.276 1.071-2.551 2.144-5.102 4.284-10.204 8.571-20.448 17.094-10.238 8.531c-.407.344-.898.738-1.235 1.04-.48.421-.95.787-1.436 1.144-.967.71-1.969 1.346-3.005 1.923-2.073 1.15-4.278 2.058-6.568 2.682-2.286.633-4.662.936-7.029.973-2.37.013-4.731-.278-7.012-.835-.574-.128-1.136-.291-1.695-.466-.564-.158-1.114-.354-1.661-.557-.549-.188-1.097-.412-1.644-.653-.559-.229-1.089-.468-1.571-.716-2.038-.987-4.001-2.04-5.969-3.1-3.924-2.137-7.806-4.34-11.608-6.678-3.806-2.331-7.557-4.75-11.236-7.277-7.345-5.063-14.46-10.513-20.862-16.755-3.184-3.129-6.203-6.458-8.73-10.151-2.519-3.674-4.627-7.734-5.442-12.123z" fill="#008e98"/>
    <path d="M181.946 222.974c-6.273 15.874-15.447 19.415-25.87 15.296-10.421-4.118-13.783-20.325-7.509-36.199 6.273-15.874 19.809-25.403 30.23-21.283 10.42 4.12 9.423 26.312 3.149 42.186z" fill="#0a0d10"/>
    <path d="M192.299 217.028c-6.308 15.861-19.863 25.359-30.277 21.218-10.412-4.143-13.738-20.355-7.43-36.217 6.306-15.86 19.863-25.359 30.275-21.215 10.414 4.141 13.74 20.356 7.432 36.214z" fill="#363a3d"/>
    <path d="M187.99 214.474c-4.158 11.432-13.614 18.487-21.12 15.758-7.509-2.731-10.225-14.212-6.065-25.644 4.158-11.435 13.614-18.491 21.119-15.76 7.508 2.729 10.224 14.211 6.066 25.646z" fill="#0a0d10"/>
    <path d="M187.115 212.029c-3.676 10.108-12.035 16.344-18.671 13.931-6.638-2.412-9.036-12.564-5.359-22.671 3.673-10.105 12.033-16.345 18.671-13.928 6.635 2.413 9.036 12.562 5.359 22.668z" fill="#d1d3d4"/>
    <path d="M187.115 212.029c-3.676 10.108-12.035 16.344-18.671 13.931-6.638-2.412-9.036-12.564-5.359-22.671 3.673-10.105 12.033-16.345 18.671-13.928 6.635 2.413 9.036 12.562 5.359 22.668z" fill="#d1d3d4"/>
    <path d="M182.782 209.997c-2.458 6.761-7.811 11.018-11.95 9.512-4.142-1.505-5.507-8.208-3.051-14.966 2.46-6.76 7.808-11.017 11.954-9.511 4.14 1.506 5.503 8.208 3.047 14.965z" fill="#808285"/>
    <path d="M176.009 192.483c.022.751-.571 1.378-1.32 1.399-.751.024-1.38-.567-1.401-1.318-.022-.751.569-1.377 1.322-1.4.749-.023 1.376.568 1.399 1.319z" fill="#d1d3d4"/>
    <path d="M174.883 192.573c.267.229.581.281.839.17.058-.135.089-.282.085-.438-.015-.555-.469-.994-1.02-.996-.267.384-.285.933.096 1.264z" fill="#fff"/>
    <path d="M174.599 192.897c-.439-.495-.468-1.181-.162-1.716-.67.105-1.171.691-1.149 1.383.021.751.65 1.342 1.401 1.318.457-.014.854-.248 1.09-.604-.402.103-.849-.006-1.18-.381z" fill="#bcbec0"/>
    <path d="M182.422 191.838c.021.751-.57 1.378-1.319 1.4-.752.023-1.379-.568-1.4-1.321-.026-.751.567-1.376 1.318-1.399.75-.023 1.379.569 1.401 1.32z" fill="#d1d3d4"/>
    <path d="M181.295 191.926c.268.233.58.283.842.17.058-.134.086-.281.083-.437-.014-.553-.468-.991-1.019-.995-.267.385-.288.933.094 1.262z" fill="#fff"/>
    <path d="M181.013 192.252c-.441-.497-.467-1.18-.165-1.717-.667.104-1.167.689-1.145 1.382.021.753.648 1.344 1.4 1.321.456-.013.853-.252 1.092-.606-.403.105-.851-.005-1.182-.38z" fill="#bcbec0"/>
    <path d="M186.913 196.96c.021.752-.57 1.379-1.322 1.403-.749.021-1.377-.572-1.401-1.321-.021-.752.569-1.377 1.322-1.4.75-.021 1.377.568 1.401 1.318z" fill="#d1d3d4"/>
    <path d="M185.786 197.05c.266.231.58.284.841.171.057-.135.087-.283.085-.437-.017-.555-.473-.993-1.022-.996-.267.385-.286.932.096 1.262z" fill="#fff"/>
    <path d="M185.501 197.374c-.439-.495-.466-1.181-.162-1.716-.666.104-1.168.691-1.149 1.384.024.749.652 1.342 1.401 1.321.457-.015.854-.252 1.091-.607-.399.105-.849-.006-1.181-.382z" fill="#bcbec0"/>
    <path d="M187.853 204.905c.026.751-.567 1.376-1.318 1.397-.749.026-1.38-.565-1.402-1.316-.021-.751.57-1.379 1.321-1.403.751-.021 1.378.571 1.399 1.322z" fill="#d1d3d4"/>
    <path d="M186.729 204.992c.267.232.578.282.839.171.058-.133.091-.282.087-.436-.019-.555-.472-.994-1.024-.996-.265.384-.284.932.098 1.261z" fill="#fff"/>
    <path d="M186.445 205.319c-.439-.498-.469-1.183-.162-1.718-.668.106-1.171.69-1.15 1.385.022.751.653 1.342 1.402 1.316.457-.013.853-.248 1.091-.602-.404.103-.85-.006-1.181-.381z" fill="#bcbec0"/>
    <path d="M185.98 211.416c.024.753-.569 1.378-1.318 1.402-.751.021-1.379-.57-1.402-1.321-.022-.751.57-1.376 1.319-1.4.753-.022 1.38.568 1.401 1.319z" fill="#d1d3d4"/>
    <path d="M184.856 211.505c.267.234.576.284.84.171.058-.135.09-.281.084-.437-.016-.555-.47-.993-1.021-.994-.266.384-.286.93.097 1.26z" fill="#fff"/>
    <path d="M184.572 211.832c-.438-.497-.469-1.182-.162-1.717-.668.106-1.171.689-1.15 1.382.023.751.651 1.342 1.402 1.321.458-.015.853-.252 1.088-.606-.4.105-.847-.005-1.178-.38z" fill="#bcbec0"/>
    <path d="M182.755 217.696c.023.751-.568 1.378-1.32 1.399-.749.024-1.38-.565-1.401-1.316-.022-.751.569-1.381 1.32-1.403.751-.021 1.377.569 1.401 1.32z" fill="#d1d3d4"/>
    <path d="M181.63 217.785c.266.23.578.284.838.17.058-.134.09-.283.087-.437-.018-.555-.472-.992-1.021-.994-.265.384-.286.93.096 1.261z" fill="#fff"/>
    <path d="M181.344 218.11c-.435-.496-.467-1.179-.162-1.718-.666.106-1.17.693-1.148 1.387.021.751.652 1.34 1.401 1.316.457-.013.854-.248 1.091-.604-.401.105-.848-.004-1.182-.381z" fill="#bcbec0"/>
    <path d="M176.897 222.287c.022.751-.569 1.376-1.322 1.4-.749.022-1.376-.568-1.4-1.317-.023-.753.568-1.382 1.321-1.402.751-.023 1.378.568 1.401 1.319z" fill="#d1d3d4"/>
    <path d="M175.769 222.376c.267.231.58.282.842.169.059-.132.088-.282.084-.435-.018-.557-.47-.994-1.021-.996-.266.382-.287.933.095 1.262z" fill="#fff"/>
    <path d="M175.487 222.703c-.439-.496-.47-1.184-.164-1.718-.666.104-1.167.691-1.148 1.385.024.749.651 1.339 1.4 1.317.458-.014.853-.252 1.092-.605-.401.103-.851-.007-1.18-.379z" fill="#bcbec0"/>
    <path d="M170.799 222.924c.022.751-.569 1.379-1.322 1.401-.749.021-1.375-.57-1.398-1.32-.024-.751.568-1.38 1.319-1.399.749-.024 1.378.565 1.401 1.318z" fill="#d1d3d4"/>
    <path d="M169.673 223.01c.267.233.579.284.84.173.06-.133.088-.284.084-.436-.017-.556-.469-.994-1.018-.996-.267.382-.288.931.094 1.259z" fill="#fff"/>
    <path d="M169.389 223.338c-.439-.495-.469-1.179-.164-1.717-.666.105-1.167.691-1.146 1.384.023.75.649 1.341 1.398 1.32.46-.015.856-.254 1.092-.605-.403.101-.847-.008-1.18-.382z" fill="#bcbec0"/>
    <path d="M166.256 218.641c.023.75-.567 1.378-1.32 1.399-.749.022-1.376-.567-1.399-1.319-.024-.749.567-1.376 1.32-1.397.749-.024 1.375.568 1.399 1.317z" fill="#d1d3d4"/>
    <path d="M165.131 218.732c.266.23.58.282.842.169.056-.133.086-.281.083-.438-.018-.554-.471-.992-1.023-.994-.263.384-.284.931.098 1.263z" fill="#fff"/>
    <path d="M164.846 219.056c-.439-.495-.466-1.182-.161-1.717-.668.103-1.168.691-1.148 1.382.023.752.65 1.341 1.399 1.319.457-.012.856-.25 1.091-.602-.401.102-.85-.006-1.181-.382z" fill="#bcbec0"/>
    <path d="M164.873 211.296c.023.751-.571 1.379-1.32 1.4-.751.021-1.38-.568-1.401-1.319-.021-.751.569-1.38 1.32-1.401.751-.022 1.377.569 1.401 1.32z" fill="#d1d3d4"/>
    <path d="M163.746 211.386c.268.229.581.281.843.167.057-.133.087-.28.081-.433-.015-.557-.469-.995-1.02-.997-.267.384-.284.933.096 1.263z" fill="#fff"/>
    <path d="M163.463 211.71c-.44-.495-.468-1.181-.163-1.715-.668.103-1.168.689-1.148 1.382.021.751.65 1.34 1.401 1.319.457-.013.854-.251 1.087-.604-.399.103-.845-.006-1.177-.382z" fill="#bcbec0"/>
    <path d="M166.618 203.875c.021.752-.57 1.375-1.321 1.399-.75.023-1.376-.568-1.398-1.318-.023-.751.565-1.379 1.317-1.401.75-.021 1.378.569 1.402 1.32z" fill="#d1d3d4"/>
    <path d="M165.491 203.963c.266.233.579.284.839.171.057-.135.09-.282.087-.437-.019-.555-.473-.994-1.022-.996-.264.385-.286.934.096 1.262z" fill="#fff"/>
    <path d="M165.206 204.289c-.44-.495-.468-1.181-.162-1.718-.666.106-1.167.692-1.145 1.385.022.75.648 1.341 1.398 1.318.457-.013.853-.25 1.088-.603-.397.103-.847-.004-1.179-.382z" fill="#bcbec0"/>
    <path d="M170.158 197.16c.022.751-.569 1.378-1.318 1.399-.752.021-1.379-.567-1.403-1.318-.023-.749.571-1.379 1.32-1.401.749-.022 1.379.569 1.401 1.32z" fill="#d1d3d4"/>
    <path d="M169.031 197.248c.27.232.58.283.843.171.057-.135.09-.281.083-.437-.015-.555-.47-.992-1.022-.994-.264.382-.282.932.096 1.26z" fill="#fff"/>
    <path d="M168.749 197.576c-.439-.499-.471-1.183-.162-1.72-.669.106-1.169.691-1.15 1.385.024.751.651 1.339 1.403 1.318.456-.013.854-.25 1.087-.605-.399.104-.845-.003-1.178-.378z" fill="#bcbec0"/>
    <path d="M180.65 209.221c-1.762 4.839-5.59 7.885-8.554 6.808-2.965-1.079-3.942-5.874-2.182-10.711 1.759-4.837 5.589-7.886 8.553-6.808 2.964 1.079 3.942 5.874 2.183 10.711z" fill="#e6e7e8"/>
    <path d="M278.033 142.558s-9.043-30.482 20.684-49.002c0 0 25.698-16.834 30.217 17.358l-50.901 31.644z" fill="#0a0d10"/>
    <path d="M313.089 138.517c-6.276 15.874-15.447 19.416-25.868 15.298-10.423-4.12-13.784-20.326-7.511-36.2 6.274-15.874 19.807-25.404 30.23-21.282 10.423 4.117 9.423 26.31 3.149 42.184z" fill="#0a0d10"/>
    <path d="M323.442 132.573c-6.308 15.859-19.862 25.356-30.274 21.216-10.416-4.141-13.741-20.356-7.435-36.217 6.311-15.858 19.863-25.358 30.279-21.215 10.412 4.141 13.741 20.355 7.43 36.216z" fill="#363a3d"/>
    <path d="M319.132 130.017c-4.157 11.432-13.612 18.487-21.121 15.759-7.505-2.731-10.221-14.214-6.063-25.646s13.612-18.49 21.122-15.759c7.505 2.733 10.221 14.211 6.062 25.646z" fill="#0a0d10"/>
    <path d="M318.259 127.574c-3.676 10.107-12.036 16.343-18.67 13.93-6.638-2.413-9.039-12.564-5.363-22.67 3.677-10.108 12.036-16.344 18.671-13.931 6.638 2.413 9.036 12.562 5.362 22.671z" fill="#d1d3d4"/>
    <path d="M318.259 127.574c-3.676 10.107-12.036 16.343-18.67 13.93-6.638-2.413-9.039-12.564-5.363-22.67 3.677-10.108 12.036-16.344 18.671-13.931 6.638 2.413 9.036 12.562 5.362 22.671z" fill="#d1d3d4"/>
    <path d="M313.926 125.54c-2.46 6.76-7.811 11.017-11.95 9.512-4.144-1.506-5.508-8.208-3.05-14.967 2.456-6.757 7.808-11.016 11.951-9.509 4.141 1.505 5.506 8.208 3.049 14.964z" fill="#808285"/>
    <path d="M307.152 108.026c.021.751-.569 1.379-1.319 1.401-.751.022-1.378-.569-1.4-1.318-.023-.751.569-1.38 1.319-1.402.75-.023 1.379.57 1.4 1.319z" fill="#d1d3d4"/>
    <path d="M306.025 108.116c.269.23.58.283.843.169.057-.133.086-.281.083-.436-.017-.555-.469-.994-1.02-.996-.266.384-.288.934.094 1.263z" fill="#fff"/>
    <path d="M305.744 108.44c-.44-.493-.47-1.182-.165-1.714-.667.103-1.167.689-1.146 1.383.022.749.649 1.34 1.4 1.318.457-.014.854-.251 1.089-.605-.4.104-.847-.007-1.178-.382z" fill="#bcbec0"/>
    <path d="M313.565 107.381c.024.751-.569 1.377-1.32 1.4-.751.023-1.379-.568-1.402-1.321-.021-.749.57-1.376 1.323-1.399.749-.023 1.376.571 1.399 1.32z" fill="#d1d3d4"/>
    <path d="M312.439 107.471c.267.231.578.282.841.167.058-.133.089-.28.085-.435-.018-.553-.472-.993-1.022-.997-.265.388-.286.935.096 1.265z" fill="#fff"/>
    <path d="M312.155 107.797c-.44-.497-.467-1.181-.162-1.718-.666.104-1.169.69-1.15 1.381.023.753.651 1.344 1.402 1.321.457-.012.853-.251 1.092-.606-.401.105-.849-.004-1.182-.378z" fill="#bcbec0"/>
    <path d="M318.054 112.506c.022.749-.569 1.376-1.318 1.4-.751.023-1.379-.57-1.401-1.321-.024-.751.569-1.378 1.32-1.399.751-.022 1.378.569 1.399 1.32z" fill="#d1d3d4"/>
    <path d="M316.928 112.594c.269.229.578.283.842.169.058-.133.09-.28.084-.437-.015-.553-.47-.993-1.02-.994-.267.383-.287.931.094 1.262z" fill="#fff"/>
    <path d="M316.646 112.92c-.439-.497-.469-1.181-.162-1.717-.668.104-1.171.691-1.149 1.382.022.751.65 1.344 1.401 1.321.457-.013.853-.253 1.09-.606-.403.105-.849-.006-1.18-.38z" fill="#bcbec0"/>
    <path d="M318.998 120.448c.021.751-.57 1.378-1.319 1.399-.752.024-1.379-.565-1.402-1.318-.021-.751.57-1.38 1.319-1.404.751-.019 1.38.574 1.402 1.323z" fill="#d1d3d4"/>
    <path d="M317.871 120.534c.268.232.58.285.843.171.057-.133.085-.281.083-.434-.019-.557-.469-.994-1.02-.996-.267.384-.288.933.094 1.259z" fill="#fff"/>
    <path d="M317.589 120.862c-.439-.497-.469-1.183-.164-1.714-.668.102-1.168.687-1.148 1.381.023.753.65 1.342 1.402 1.318.456-.013.854-.251 1.088-.603-.401.104-.846-.007-1.178-.382z" fill="#bcbec0"/>
    <path d="M317.125 126.961c.021.753-.569 1.376-1.32 1.4-.751.022-1.378-.568-1.403-1.319-.021-.753.571-1.379 1.322-1.401.751-.021 1.379.569 1.401 1.32z" fill="#d1d3d4"/>
    <path d="M315.998 127.049c.27.235.58.284.841.171.055-.135.088-.282.084-.437-.018-.555-.469-.993-1.021-.996-.265.385-.286.934.096 1.262z" fill="#fff"/>
    <path d="M315.714 127.375c-.437-.497-.465-1.181-.16-1.717-.67.105-1.172.691-1.152 1.384.025.751.652 1.341 1.403 1.319.457-.013.854-.249 1.089-.606-.399.107-.847-.004-1.18-.38z" fill="#bcbec0"/>
    <path d="M313.898 133.241c.024.749-.569 1.377-1.318 1.397-.753.024-1.379-.565-1.403-1.316-.022-.751.571-1.38 1.32-1.404.751-.021 1.38.572 1.401 1.323z" fill="#d1d3d4"/>
    <path d="M312.772 133.329c.269.23.578.283.842.169.058-.133.09-.281.082-.434-.014-.557-.468-.994-1.019-.997-.264.383-.288.932.095 1.262z" fill="#fff"/>
    <path d="M312.49 133.655c-.44-.497-.47-1.182-.164-1.718-.666.104-1.169.691-1.149 1.385.024.751.65 1.34 1.403 1.316.457-.013.853-.249 1.088-.601-.401.102-.847-.008-1.178-.382z" fill="#bcbec0"/>
    <path d="M308.038 137.829c.022.752-.569 1.379-1.318 1.403-.751.021-1.38-.569-1.401-1.32-.021-.751.569-1.379 1.32-1.401.751-.022 1.377.568 1.399 1.318z" fill="#d1d3d4"/>
    <path d="M306.915 137.919c.266.231.576.283.839.171.057-.136.087-.283.083-.436-.017-.556-.469-.993-1.02-.995-.267.381-.286.93.098 1.26z" fill="#fff"/>
    <path d="M306.63 138.245c-.44-.496-.468-1.181-.163-1.718-.668.106-1.169.691-1.148 1.385.021.751.65 1.341 1.401 1.32.457-.015.854-.252 1.087-.606-.399.102-.845-.006-1.177-.381z" fill="#bcbec0"/>
    <path d="M301.942 138.466c.023.751-.568 1.38-1.319 1.404-.751.019-1.38-.57-1.402-1.321-.021-.753.57-1.38 1.319-1.401.753-.024 1.379.567 1.402 1.318z" fill="#d1d3d4"/>
    <path d="M300.817 138.556c.267.231.576.283.839.17.058-.134.089-.281.083-.437-.017-.555-.468-.992-1.02-.995-.266.383-.286.931.098 1.262z" fill="#fff"/>
    <path d="M300.533 138.882c-.44-.497-.469-1.181-.162-1.718-.669.105-1.171.692-1.15 1.385.022.751.651 1.34 1.402 1.321.457-.017.853-.254 1.091-.606-.404.101-.85-.009-1.181-.382z" fill="#bcbec0"/>
    <path d="M297.399 134.184c.022.753-.567 1.378-1.318 1.401-.753.022-1.379-.569-1.401-1.32-.022-.751.569-1.376 1.32-1.399.751-.024 1.378.569 1.399 1.318z" fill="#d1d3d4"/>
    <path d="M296.273 134.274c.269.23.58.283.842.17.058-.132.088-.281.084-.438-.016-.554-.47-.993-1.021-.994-.264.385-.288.931.095 1.262z" fill="#fff"/>
    <path d="M295.991 134.598c-.44-.493-.468-1.181-.162-1.716-.668.107-1.169.69-1.149 1.383.022.751.648 1.342 1.401 1.32.458-.014.853-.252 1.09-.605-.402.104-.849-.004-1.18-.382z" fill="#bcbec0"/>
    <path d="M296.016 126.84c.022.751-.569 1.378-1.32 1.402-.751.019-1.378-.57-1.399-1.321-.026-.753.567-1.379 1.318-1.399.751-.024 1.38.565 1.401 1.318z" fill="#d1d3d4"/>
    <path d="M294.888 126.93c.271.23.58.281.843.17.058-.136.089-.285.083-.437-.016-.557-.468-.993-1.022-.995-.263.382-.284.931.096 1.262z" fill="#fff"/>
    <path d="M294.608 127.254c-.439-.495-.469-1.182-.162-1.716-.67.103-1.171.69-1.149 1.383.021.751.648 1.34 1.399 1.321.456-.017.855-.252 1.09-.608-.402.103-.851-.005-1.178-.38z" fill="#bcbec0"/>
    <path d="M297.759 119.419c.024.751-.569 1.378-1.318 1.398-.751.023-1.378-.566-1.401-1.317-.022-.751.569-1.379 1.318-1.401.753-.021 1.38.567 1.401 1.32z" fill="#d1d3d4"/>
    <path d="M296.633 119.507c.269.231.579.283.841.17.058-.136.091-.283.083-.436-.014-.555-.468-.994-1.018-.997-.266.386-.285.934.094 1.263z" fill="#fff"/>
    <path d="M296.351 119.833c-.439-.497-.469-1.182-.162-1.717-.668.104-1.169.691-1.149 1.384.023.751.65 1.34 1.401 1.317.457-.013.854-.25 1.088-.604-.4.103-.847-.003-1.178-.38z" fill="#bcbec0"/>
    <path d="M301.301 112.703c.024.752-.571 1.38-1.32 1.4-.751.022-1.379-.566-1.4-1.317-.022-.751.568-1.38 1.321-1.402.749-.023 1.376.57 1.399 1.319z" fill="#d1d3d4"/>
    <path d="M300.175 112.79c.267.233.581.286.843.171.057-.134.087-.28.083-.437-.017-.555-.471-.992-1.022-.994-.263.383-.284.933.096 1.26z" fill="#fff"/>
    <path d="M299.893 113.119c-.441-.499-.47-1.184-.164-1.718-.668.105-1.169.691-1.148 1.385.021.751.649 1.339 1.4 1.317.458-.014.854-.25 1.092-.603-.401.101-.851-.007-1.18-.381z" fill="#bcbec0"/>
    <path d="M311.795 124.766c-1.761 4.837-5.59 7.884-8.554 6.805-2.968-1.078-3.943-5.872-2.183-10.709 1.758-4.839 5.59-7.886 8.55-6.807 2.967 1.076 3.944 5.874 2.187 10.711z" fill="#e6e7e8"/>
    <path d="M34.028 202.018v13.053l23.652 15.402v-14.198l-23.652-14.257z" fill="#fff"/>
    <path d="M166.451 174.189s.604-.444 1.737-1.275c1.137-.825 2.784-2.067 4.921-3.584 4.258-3.059 10.361-7.398 17.765-12.478 3.697-2.548 7.702-5.308 11.979-8.163 4.269-2.868 8.755-5.917 13.452-8.982 4.696-3.069 9.505-6.305 14.468-9.475 4.953-3.187 9.984-6.424 15.015-9.661 5.064-3.186 10.128-6.371 15.112-9.507 4.97-3.16 9.944-6.138 14.712-9.092 4.768-2.955 9.427-5.732 13.836-8.379 4.399-2.663 8.595-5.124 12.471-7.39 3.864-2.286 7.437-4.332 10.605-6.143 3.159-1.827 5.942-3.373 8.228-4.656 2.28-1.292 4.103-2.257 5.333-2.937 1.233-.673 1.891-1.032 1.891-1.032s-.604.443-1.736 1.275c-1.137.826-2.784 2.069-4.92 3.586-2.131 1.527-4.711 3.393-7.704 5.48-2.984 2.101-6.352 4.47-10.059 7.002-3.695 2.551-7.703 5.306-11.979 8.163-4.266 2.872-8.756 5.916-13.453 8.98-4.696 3.068-9.502 6.311-14.47 9.473-4.953 3.186-9.984 6.423-15.016 9.659-5.064 3.185-10.129 6.369-15.114 9.505-4.975 3.151-9.944 6.137-14.714 9.088-4.766 2.957-9.429 5.728-13.836 8.379-4.399 2.663-8.596 5.122-12.47 7.39-7.74 4.554-14.256 8.244-18.832 10.802-2.279 1.293-4.102 2.258-5.332 2.939-1.232.673-1.89 1.033-1.89 1.033zM201.779 172.196s.898-.794 2.523-2.09c1.623-1.302 3.975-3.102 6.846-5.182 2.875-2.07 6.279-4.402 9.984-6.802 1.852-1.201 3.777-2.422 5.751-3.631 1.968-1.223 3.993-2.42 6.014-3.622 2.036-1.178 4.067-2.364 6.095-3.484 2.016-1.137 4.026-2.215 5.976-3.248 3.902-2.063 7.6-3.895 10.811-5.392 3.216-1.491 5.937-2.663 7.867-3.441 1.925-.785 3.057-1.18 3.057-1.18s-.897.795-2.523 2.092c-1.621 1.304-3.971 3.107-6.842 5.186-2.875 2.071-6.279 4.404-9.985 6.802-1.854 1.197-3.776 2.424-5.753 3.629-1.967 1.223-3.994 2.416-6.015 3.619-2.037 1.176-4.07 2.359-6.097 3.479-2.02 1.133-4.025 2.217-5.978 3.246-3.903 2.064-7.6 3.895-10.811 5.393-3.216 1.49-5.936 2.663-7.864 3.443-1.925.786-3.056 1.183-3.056 1.183z" fill="#008e98"/>
    <path d="M325.531 87.764c-1.296-3.76-2.899-6.924-4.582-9.562.307-.103.614-.204.921-.301 1.576 2.501 3.074 5.453 4.319 8.909-.214.322-.433.64-.658.954z" fill="#008d97"/>
    <path d="M329.403 110.937l-.469-.023c-.023-.175-.047-.351-.071-.524l.578-.369c-.011.303-.024.608-.038.916z" fill="#747678"/>
    <path d="M328.863 110.39c-.098-.692-.203-1.36-.318-2.01.006-.398.009-.793.009-1.184-.001-7.767-1.213-14.18-3.023-19.432.225-.314.444-.632.658-.954 1.97 5.471 3.305 12.201 3.304 20.386 0 .923-.018 1.864-.052 2.825l-.578.369zm-7.914-32.188c-.243-.382-.489-.753-.735-1.113.26-.187.515-.369.763-.547.3.437.598.89.893 1.359-.307.097-.614.198-.921.301z" fill="#00828b"/>
    <path d="M328.934 110.914l-.469-.022c.04-.852.067-1.69.08-2.512.115.65.22 1.318.318 2.01.024.173.048.349.071.524z" fill="#040707"/>
    <path d="M317.701 73.794c-3.946-4.644-7.565-6.672-8.015-6.914l-.047-.024h.001l.427-.836c.039.021 4.001 2.053 8.34 7.157-.237.204-.473.41-.706.617z" fill="#008d97"/>
    <path d="M319.514 76.098c-.002-.003-.004-.005-.006-.008-.603-.827-1.209-1.592-1.807-2.296.233-.207.469-.413.706-.617.466.547.935 1.13 1.405 1.749.176.231.351.468.526.71-.268.15-.543.304-.824.462z" fill="#00828b"/>
    <path d="M320.214 77.089c-.232-.34-.466-.671-.7-.991.281-.158.556-.312.824-.462.214.294.427.596.639.906-.248.178-.503.36-.763.547z" fill="#006f77"/>
    <path d="M195.017 172.564l-.048-.012c-.255-.066-.427-.333-.394-.591.119.158.237.318.354.48.029.041.058.082.088.123z" fill="#008d97"/>
    <path d="M198.966 187.615c-.4-6.34-2.249-11.07-4.8-14.627-2.551-3.556-5.814-5.943-9.068-7.549-.555-.274-1.109-.525-1.659-.754.334-.193.673-.388 1.015-.585 3.553 1.583 7.232 4.041 10.121 7.861-.033.258.139.525.394.591l.048.012c2.504 3.536 4.326 8.169 4.828 14.201l-.664.425.253.395-.468.03z" fill="#00828b"/>
    <path d="M180.315 163.57c-4.499-1.347-8.16-1.403-8.578-1.403H171.7l-.196.002-.14-.138c-1.57-1.537-2.158-2.946-2.157-4.155.001-1.208.579-2.136 1.13-2.743.554-.61 1.094-.924 1.12-.941v.001l.167.286-.176.273.246-.153.235.404-.012.008-.053.034-.203.144c-.171.129-.401.323-.629.574-.457.507-.887 1.218-.887 2.113.002.867.395 1.981 1.744 3.353.862.015 4.399.154 8.7 1.443.272.082.546.168.824.259-.368.21-.734.422-1.098.639z" fill="#008d97"/>
    <path d="M180.935 163.762c-.208-.067-.415-.131-.62-.192.364-.217.73-.429 1.098-.639.158.052.316.105.476.16-.323.227-.64.451-.954.671z" fill="#00828b"/>
    <path d="M171.448 154.752l.176-.273.07.12-.246.153z" fill="#003f44"/>
    <path d="M183.439 164.685c-.849-.356-1.688-.66-2.504-.923.314-.22.631-.444.954-.671.838.289 1.698.624 2.565 1.009-.342.197-.681.392-1.015.585z" fill="#006f77"/>
    <path d="M199.687 187.98l-.253-.395.469-.029c-.017-.266-.036-.53-.058-.791l44.062-28.249v.256h.939v-.857l31.452-20.164.507.79-77.118 49.439z" fill="#00828b"/>
    <path d="M244.846 158.772h-.939v-.256l.939-.601v.857zM199.434 187.585l-.253-.395.664-.425c.022.261.041.525.058.791l-.469.029z" fill="#00676e"/>
    <path d="M176.115 144.859c-3.751 1.533-5.734 1.311-5.734 1.311-3.862 5.569 1.281 9.623 1.281 9.623 3.484-1.768 6.564-.079 6.564-.079 6.555 5.167 16.506-.972 16.506-.972 10.268-4.942 6.533-14.102 6.533-14.102-1.26-5.748-6.238-5.678-6.238-5.678-7.325-.355-14.201 4.17-14.201 4.17s-4.455 2.277-4.711 5.727z" fill="#008b95"/>
    <path d="M107.25 59.58s.217.291.645.803c.413.518 1.078 1.243 1.914 2.15.428.443.902.934 1.417 1.469.549.506 1.112 1.076 1.724 1.669.595.609 1.316 1.18 2.024 1.82.354.319.718.646 1.089.981.374.333.783.648 1.186.982.811.66 1.655 1.346 2.53 2.057.902.675 1.835 1.372 2.793 2.09.938.736 1.955 1.429 2.996 2.132 1.046.695 2.068 1.463 3.161 2.172 1.105.693 2.227 1.397 3.363 2.11.566.359 1.134.72 1.706 1.083.589.337 1.181.677 1.775 1.017 2.384 1.35 4.752 2.804 7.263 4.026 1.231.652 2.462 1.305 3.688 1.954 1.236.632 2.503 1.198 3.738 1.799 1.244.587 2.473 1.181 3.682 1.779 1.196.628 2.458 1.075 3.649 1.631 2.417 1.026 4.71 2.144 6.947 3.058 2.245.891 4.357 1.783 6.309 2.612 1.947.846 3.758 1.558 5.372 2.173 1.615.612 3.011 1.2 4.165 1.674 2.308.955 3.619 1.563 3.619 1.563s-1.422-.157-3.896-.543c-1.236-.196-2.744-.422-4.459-.743-.861-.154-1.776-.318-2.742-.491-.963-.186-1.948-.476-2.993-.728-2.084-.521-4.345-1.093-6.725-1.75-2.373-.675-4.816-1.58-7.367-2.456-2.565-.841-5.124-1.958-7.723-3.098-1.293-.583-2.629-1.102-3.91-1.755-1.278-.66-2.561-1.323-3.845-1.986-1.265-.699-2.579-1.301-3.797-2.079-1.229-.755-2.452-1.506-3.666-2.252-.605-.376-1.207-.751-1.805-1.124-.576-.411-1.15-.82-1.719-1.226-1.134-.818-2.253-1.625-3.355-2.42-1.076-.83-2.1-1.696-3.103-2.535-1.002-.842-1.997-1.643-2.878-2.535-.896-.865-1.768-1.707-2.612-2.521-.803-.858-1.555-1.712-2.285-2.515-.739-.794-1.411-1.592-2.01-2.385-.597-.795-1.204-1.503-1.693-2.245-.5-.73-.979-1.4-1.393-2.04-.389-.656-.746-1.259-1.069-1.804-.331-.534-.577-1.049-.794-1.489-.22-.437-.402-.811-.532-1.126-.275-.618-.384-.958-.384-.958zM223.865 85.779s.059.34.233.907c.16.569.447 1.369.918 2.246.207.452.535.881.832 1.355.367.424.716.898 1.186 1.281.414.447.982.725 1.488 1.095.281.143.577.263.865.398l.437.199c.151.052.311.083.467.126l.931.262c.308.096.641.087.957.137.32.034.637.073.951.118.315.025.632-.001.941.002.619-.032 1.226.043 1.795-.063.57-.072 1.113-.127 1.617-.177.507-.031.955-.162 1.365-.222.408-.076.763-.142 1.056-.197.588-.104.932-.151.932-.151s-.313.136-.873.351c-.283.105-.624.233-1.017.38-.397.135-.83.348-1.341.437-.505.119-1.054.246-1.639.366-.579.16-1.22.154-1.873.211-.329.016-.662.06-1.002.051-.34-.028-.685-.058-1.032-.087-.346-.047-.702-.036-1.047-.133l-1.039-.27c-.171-.052-.346-.092-.514-.153l-.49-.23c-.323-.157-.651-.301-.963-.469-.58-.417-1.175-.793-1.619-1.309-.506-.453-.842-1.018-1.198-1.515-.284-.54-.57-1.041-.728-1.547-.205-.486-.302-.961-.401-1.372-.073-.418-.142-.779-.164-1.081-.065-.602-.031-.946-.031-.946z" fill="#fff"/>
  </g>
</svg>
