<?xml version="1.0" encoding="UTF-8" standalone="no"?><!DOCTYPE svg PUBLIC "-//W3C//DTD SVG 1.1//EN" "http://www.w3.org/Graphics/SVG/1.1/DTD/svg11.dtd"><svg width="500" height="500" viewBox="0 0 305 209" version="1.1" xmlns="http://www.w3.org/2000/svg" xmlns:xlink="http://www.w3.org/1999/xlink" xml:space="preserve" xmlns:serif="http://www.serif.com/" style="fill-rule:evenodd;clip-rule:evenodd;stroke-linejoin:round;stroke-miterlimit:2;"><rect id="Artboard1" x="0" y="0" width="304.945" height="208.037" style="fill:none;"/><g id="BACKGROUND"></g><g><path d="M241.542,73.709l-12.686,0c-6.085,0 -11.065,-4.979 -11.065,-11.065l0,-25.959c0,-6.086 4.98,-11.065 11.065,-11.065l12.686,0c6.086,0 11.065,4.979 11.065,11.065l0,25.959c0,6.086 -4.979,11.065 -11.065,11.065" style="fill:#404041;"/><path d="M72.776,73.709l-12.686,0c-6.085,0 -11.065,-4.979 -11.065,-11.065l0,-25.959c0,-6.086 4.98,-11.065 11.065,-11.065l12.686,0c6.086,0 11.065,4.979 11.065,11.065l0,25.959c0,6.086 -4.979,11.065 -11.065,11.065" style="fill:#404041;"/><path d="M66.844,137.23c-2.973,0.331 -18.695,-1.797 -16.843,5.614c0.737,2.949 3.687,5.331 6.182,6.465c3.026,1.376 13.032,1.728 14.177,-3.743c0.51,-2.438 -0.397,-6.181 -0.907,-6.861c-0.511,-0.681 -2.609,-1.475 -2.609,-1.475" style="fill:#9391bf;"/><path d="M66.107,134.111c-0.397,1.191 -0.737,6.011 -2.212,6.578c-1.474,0.567 -6.181,-0.227 -6.238,-0.623c-0.056,-0.398 2.552,-10.605 3.176,-10.548c0.624,0.056 5.274,4.593 5.274,4.593" style="fill:#404041;"/><path d="M234.787,136.699c2.973,0.331 18.695,-1.797 16.843,5.614c-0.737,2.949 -3.686,5.331 -6.182,6.465c-3.026,1.376 -13.032,1.727 -14.177,-3.743c-0.51,-2.438 0.397,-6.181 0.907,-6.862c0.511,-0.68 2.609,-1.474 2.609,-1.474" style="fill:#9391bf;"/><path d="M235.525,134.642c0.397,1.191 0.737,6.011 2.212,6.578c1.474,0.568 6.181,-0.226 6.238,-0.623c0.056,-0.398 -2.553,-10.605 -3.176,-10.548c-0.624,0.056 -5.274,4.593 -5.274,4.593" style="fill:#404041;"/><path d="M202.183,180.733c4.105,-1.134 9.653,-5.558 11.539,-7.713c1.886,-2.154 35.395,-55.348 38.723,-63.514c3.329,-8.166 2.553,-31.303 0.778,-41.511c-1.776,-10.208 -8.1,-22.003 -10.763,-24.611c-2.663,-2.609 -3.328,-3.176 -4.66,-3.176c-1.331,0 -78.887,-2.27 -84.878,-1.816c-0.794,0.06 -1.492,0.11 -2.106,0.152c-0.615,-0.042 -1.313,-0.092 -2.107,-0.152c-5.991,-0.454 -83.547,1.816 -84.878,1.816c-1.331,0 -1.997,0.567 -4.66,3.176c-2.663,2.608 -8.987,14.403 -10.763,24.611c-1.775,10.208 -2.551,33.345 0.778,41.511c3.329,8.166 36.837,61.36 38.723,63.514c1.887,2.155 7.434,6.579 11.539,7.713c13.073,3.612 89.974,3.526 102.735,0" style="fill:#9391bf;"/><g><clipPath id="_clip1"><path d="M202.184,180.733c4.105,-1.135 9.652,-5.558 11.539,-7.713c1.885,-2.155 35.394,-55.348 38.723,-63.515c3.328,-8.166 2.553,-31.303 0.777,-41.511c-1.775,-10.207 -8.099,-22.002 -10.762,-24.611c-2.663,-2.609 -3.329,-3.176 -4.66,-3.176c-1.332,0 -78.887,-2.269 -84.878,-1.815c-0.794,0.06 -1.492,0.109 -2.107,0.152c-0.614,-0.043 -1.312,-0.092 -2.107,-0.152c-5.991,-0.454 -83.547,1.815 -84.878,1.815c-1.331,0 -1.997,0.567 -4.66,3.176c-2.662,2.609 -8.986,14.404 -10.762,24.611c-1.775,10.208 -2.551,33.345 0.777,41.511c3.329,8.167 36.838,61.36 38.724,63.515c1.886,2.155 7.434,6.578 11.539,7.713c6.496,1.795 28.759,2.676 51.076,2.676c22.591,0.001 45.239,-0.903 51.659,-2.676Z" clip-rule="nonzero"/></clipPath><g clip-path="url(#_clip1)"><path d="M242.389,108.294c0.944,-0.314 3.046,-1.553 5.287,-2.99c2.923,-1.875 6.068,-4.081 7.205,-5.031l0.363,0.435c-1.152,0.961 -4.322,3.186 -7.263,5.072c-2.271,1.457 -4.417,2.717 -5.414,3.05l-0.178,-0.536Z" style="fill:#212122;"/><path d="M60.129,108.829c-0.68,-0.227 -1.965,-0.951 -3.451,-1.873c-1.964,-1.219 -4.294,-2.789 -6.035,-4.004c-2.349,-1.639 -4.252,-3.004 -4.255,-3.006l0.325,-0.463c0.004,0.003 0.516,0.399 4.253,3.006c1.734,1.21 4.054,2.773 6.008,3.986c1.454,0.903 2.7,1.607 3.332,1.818l-0.177,0.536Z" style="fill:#212122;"/></g></g><path d="M203.794,175.513c2.581,-1.459 24.203,-32.721 24.174,-33.458c-0.03,-0.738 -2.893,-0.823 -2.893,-0.823l-74.259,0.844l-74.26,-0.844c0,0 -2.863,0.085 -2.893,0.823c-0.029,0.737 22.051,31.387 24.174,33.458c5.462,5.327 96.198,5.513 105.957,0" style="fill:#212122;"/><path d="M194.369,97.735l-87.106,0c-5.458,0 -9.924,-4.466 -9.924,-9.924l0,-9.924l106.954,0l0,9.924c0,5.458 -4.466,9.924 -9.924,9.924" style="fill:#404041;"/><g><clipPath id="_clip2"><path d="M194.369,97.735c5.458,0 9.924,-4.466 9.924,-9.923l0,-9.925l-106.954,0l0,9.925c0,5.457 4.466,9.923 9.924,9.923l87.106,0Z" clip-rule="nonzero"/></clipPath><g clip-path="url(#_clip2)"><rect x="86.91" y="94.546" width="122.491" height="1.928" style="fill:#58595b;"/><rect x="86.91" y="89.413" width="122.491" height="1.928" style="fill:#58595b;"/><rect x="86.91" y="84.281" width="122.491" height="1.928" style="fill:#58595b;"/><rect x="86.91" y="79.149" width="122.491" height="1.928" style="fill:#58595b;"/></g></g><path d="M98.862,59.286l0,-1.305c0,-7.579 6.201,-13.78 13.78,-13.78l73.382,0c7.579,0 13.78,6.201 13.78,13.78l0,1.305l-100.942,0Z" style="fill:#404041;"/><g><clipPath id="_clip3"><path d="M199.804,59.286l0,-1.304c0,-7.579 -6.201,-13.78 -13.781,-13.78l-73.381,0c-7.579,0 -13.78,6.201 -13.78,13.78l0,1.304l100.942,0Z" clip-rule="nonzero"/></clipPath><g clip-path="url(#_clip3)"><rect x="93.588" y="56.591" width="111.49" height="1.388" style="fill:#58595b;"/><rect x="93.588" y="52.898" width="111.49" height="1.387" style="fill:#58595b;"/><rect x="93.588" y="49.204" width="111.49" height="1.388" style="fill:#58595b;"/><rect x="93.588" y="45.511" width="111.49" height="1.387" style="fill:#58595b;"/></g></g><path d="M223.84,144.944c0.424,-0.215 1.195,-0.732 2.276,-2.119c1.103,-1.415 2.511,-3.72 4.175,-7.497c3.027,-6.873 3.386,-11.971 3.426,-12.84c-1.461,-1.262 -18.569,-16.024 -19.007,-16.024c-3.508,0 -14.998,-0.126 -29.667,-0.287c-10.368,-0.113 -22.331,-0.245 -34.227,-0.361c-11.895,0.116 -23.858,0.248 -34.226,0.361c-14.669,0.161 -26.159,0.287 -29.667,0.287c-0.438,0 -17.546,14.762 -19.008,16.024c0.041,0.869 0.4,5.967 3.427,12.84c1.663,3.777 3.072,6.082 4.174,7.497c1.082,1.388 1.852,1.904 2.276,2.119l-0.255,0.505c-0.469,-0.239 -1.316,-0.801 -2.465,-2.276c-1.129,-1.449 -2.565,-3.794 -4.248,-7.617c-3.368,-7.648 -3.478,-13.171 -3.478,-13.187l-0.003,-0.133l0.1,-0.087c0.054,-0.047 18.822,-16.252 19.48,-16.252c3.738,0 15.125,-0.125 29.663,-0.284c10.368,-0.114 22.332,-0.245 34.228,-0.361l0.002,0.282l0.003,-0.282c11.895,0.116 23.86,0.247 34.228,0.361c14.538,0.159 25.925,0.284 29.663,0.284c0.658,0 19.426,16.205 19.479,16.252l0.101,0.087l-0.003,0.133c-0.001,0.016 -0.11,5.539 -3.478,13.187c-1.683,3.823 -3.12,6.168 -4.248,7.617c-1.15,1.476 -1.996,2.038 -2.464,2.276l-0.257,-0.505Z" style="fill:#212122;"/><path d="M237.429,121.214c5.444,-4.764 7.826,-10.548 8.053,-13.497c0.227,-2.949 -3.97,-4.99 -4.877,-5.331c-0.907,-0.34 -15.255,-6.578 -21.833,-7.145c-6.578,-0.567 -7.883,0.454 -9.13,2.779c-1.248,2.325 -0.397,7.032 0.794,9.414c1.191,2.381 10.547,14.715 11.37,15.566c3.253,3.365 12.596,0.863 15.623,-1.786" style="fill:#e6e7e8;"/><path d="M226.201,102.159c-4.56,0 -8.28,3.669 -8.28,8.166c0,4.498 3.72,8.166 8.28,8.166c4.56,0 8.279,-3.668 8.279,-8.166c0,-4.497 -3.719,-8.166 -8.279,-8.166" style="fill:#d0d2d3;"/><path d="M64.203,120.872c-5.444,-4.763 -7.826,-10.548 -8.053,-13.497c-0.227,-2.949 3.97,-4.99 4.877,-5.331c0.907,-0.34 15.255,-6.578 21.833,-7.145c6.579,-0.567 7.882,0.454 9.13,2.779c1.248,2.325 0.397,7.032 -0.794,9.414c-1.191,2.381 -10.547,14.716 -11.37,15.566c-3.253,3.365 -12.596,0.863 -15.623,-1.786" style="fill:#e6e7e8;"/><path d="M75.431,101.818c-4.56,0 -8.28,3.668 -8.28,8.166c0,4.498 3.72,8.166 8.28,8.166c4.56,0 8.28,-3.668 8.28,-8.166c0,-4.498 -3.72,-8.166 -8.28,-8.166" style="fill:#d0d2d3;"/><path d="M204.771,62.403c0.567,0.114 40.264,1.871 40.264,1.871c0,0 -0.68,-6.918 -5.557,-12.816c-4.877,-5.898 -13.61,-6.748 -19.678,-7.259c-6.068,-0.51 -27.504,-0.964 -27.107,-0.85c0.397,0.113 28.623,4.731 28.623,4.731l3.526,14.577l-20.071,-0.254Z" style="fill:#7f7ea1;"/><path d="M224.842,62.657c0,0 -4.025,-14.969 -3.572,-14.686c0.198,0.123 20.316,-0.624 20.103,14.858c-0.004,0.339 -16.531,-0.172 -16.531,-0.172" style="fill:#e6e7e8;"/><path d="M230.996,52.905c-2.296,0 -4.168,1.796 -4.168,3.998c0,2.202 1.872,3.998 4.168,3.998c2.296,0 4.168,-1.796 4.168,-3.998c0,-2.202 -1.872,-3.998 -4.168,-3.998" style="fill:#d0d2d3;"/><path d="M96.861,62.403c-0.567,0.114 -40.265,1.871 -40.265,1.871c0,0 0.681,-6.918 5.558,-12.816c4.877,-5.898 13.61,-6.748 19.678,-7.259c6.068,-0.51 27.504,-0.964 27.107,-0.85c-0.397,0.113 -28.623,4.731 -28.623,4.731l-3.527,14.577l20.072,-0.254Z" style="fill:#7f7ea1;"/><path d="M76.79,62.657c0,0 4.025,-14.969 3.572,-14.686c-0.198,0.123 -20.316,-0.624 -20.103,14.858c0.004,0.339 16.531,-0.172 16.531,-0.172" style="fill:#e6e7e8;"/><path d="M70.636,52.905c-2.296,0 -4.168,1.796 -4.168,3.998c0,2.202 1.872,3.998 4.168,3.998c2.296,0 4.168,-1.796 4.168,-3.998c0,-2.202 -1.872,-3.998 -4.168,-3.998" style="fill:#d0d2d3;"/><path d="M208.261,78.706c11.142,2.36 35.547,5.925 46.461,13.585c0.049,-2.576 0.027,-5.22 -0.053,-7.815c-2.515,-1.233 -17.26,-4.069 -25.993,-4.863c-8.733,-0.793 -20.415,-0.907 -20.415,-0.907" style="fill:#9f9ec7;"/><path d="M46.912,92.387c10.845,-7.726 35.409,-11.312 46.598,-13.681c0,0 -11.682,0.113 -20.415,0.907c-8.733,0.794 -23.478,3.63 -25.993,4.862c-0.048,0.024 -0.095,0.049 -0.141,0.076c-0.08,2.604 -0.1,5.255 -0.049,7.836" style="fill:#9f9ec7;"/><path d="M210.09,136.322c0,0 -3.403,-6.522 -8.45,-14.007c-5.047,-7.486 -7.939,-10.094 -7.939,-10.094c9.382,7.836 12.429,12.745 17.296,23.647l-0.907,0.454Z" style="fill:#8886ad;"/><path d="M91.542,136.322c0,0 3.402,-6.522 8.45,-14.007c5.047,-7.486 7.939,-10.094 7.939,-10.094c-9.382,7.836 -12.43,12.745 -17.297,23.647l0.908,0.454Z" style="fill:#8886ad;"/><path d="M173.136,179.148l-37.241,-37.242l-59.339,-0.674c0,0 -2.863,0.085 -2.893,0.822c-0.029,0.738 22.051,31.388 24.174,33.459c3.639,3.549 45.123,4.815 75.299,3.635" style="fill:#6d6e70;"/><g id="OBJECTS"></g></g></svg>