<?xml version="1.0" encoding="UTF-8" standalone="no"?><!DOCTYPE svg PUBLIC "-//W3C//DTD SVG 1.1//EN" "http://www.w3.org/Graphics/SVG/1.1/DTD/svg11.dtd"><svg width="220" height="220" viewBox="0 0 64 64" version="1.1" xmlns="http://www.w3.org/2000/svg" xmlns:xlink="http://www.w3.org/1999/xlink" xml:space="preserve" xmlns:serif="http://www.serif.com/" style="fill-rule:evenodd;clip-rule:evenodd;stroke-linejoin:round;stroke-miterlimit:2;"><path d="M31.669,4.038c16.398,0 29.646,12.793 29.646,28.627c0,15.834 -13.248,28.626 -29.646,28.626c-16.397,0 -29.645,-12.792 -29.645,-28.626c0,-15.834 13.248,-28.627 29.645,-28.627Z" style="fill:#316cff;fill-rule:nonzero;"/><path d="M40,26c0,3.1 -1,6 -2.7,8.3l2.7,2.7l-3,3l-2.7,-2.7c-2.3,1.7 -5.2,2.7 -8.3,2.7c-7.7,0 -14,-6.3 -14,-14c0,-7.7 6.3,-14 14,-14c7.7,0 14,6.3 14,14Z" style="fill:#fff;fill-rule:nonzero;"/><path d="M26,14.9c6.1,0 11.1,5 11.1,11.1c0,6.1 -5,11.1 -11.1,11.1c-6.1,0 -11.1,-5 -11.1,-11.1c0,-6.1 5,-11.1 11.1,-11.1Z" style="fill:#68b2ea;fill-rule:nonzero;"/><path d="M44,40l-4,4l-4.8,-4.8l0.6,-0.4l3,-3l0.4,-0.6l4.8,4.8Z" style="fill:#ffea29;fill-rule:nonzero;"/><path d="M50,50c-1.1,1.1 -2.9,1.1 -4,0l-8,-8l4,-4l8,8c1.1,1.1 1.1,2.9 0,4Z" style="fill:#2c2c3d;fill-rule:nonzero;"/><path d="M24.1,17.3c0.5,0 1,0.4 1,1c0,0.5 -0.4,1 -1,1c-2.3,0 -4.8,2.5 -4.8,4.8c0,0.5 -0.4,1 -1,1c-0.5,0 -1,-0.4 -1,-1c0,-3.4 3.3,-6.8 6.8,-6.8Z" style="fill:#fff;fill-rule:nonzero;"/></svg>