<?xml version="1.0" encoding="UTF-8" standalone="no"?><!DOCTYPE svg PUBLIC "-//W3C//DTD SVG 1.1//EN" "http://www.w3.org/Graphics/SVG/1.1/DTD/svg11.dtd"><svg width="100%" height="100%" viewBox="0 0 41 41" version="1.1" xmlns="http://www.w3.org/2000/svg" xmlns:xlink="http://www.w3.org/1999/xlink" xml:space="preserve" xmlns:serif="http://www.serif.com/" style="fill-rule:evenodd;clip-rule:evenodd;stroke-linejoin:round;stroke-miterlimit:2;"><g id="Glass"><g><path d="M14.679,1.02c7.727,0 14,6.273 14,14c0,7.727 -6.273,14 -14,14c-7.727,0 -14,-6.273 -14,-14c0,-7.727 6.273,-14 14,-14Zm0,3.033c6.053,0 10.966,4.914 10.966,10.967c0,6.052 -4.913,10.966 -10.966,10.966c-6.053,0 -10.967,-4.914 -10.967,-10.966c0,-6.053 4.914,-10.967 10.967,-10.967Z" style="fill:#d9d9d9;"/><path d="M28.267,25.715l-2.941,-2.941l-2.875,2.875l2.941,2.941l2.875,-2.875Z" style="fill:#d9d9d9;"/></g><path d="M12.739,6.33c0.54,0 0.97,0.43 0.97,0.96c0,0.54 -0.43,0.97 -0.97,0.97c-2.34,0 -4.82,2.48 -4.82,4.83c0,0.54 -0.43,0.97 -0.96,0.97c-0.54,0 -0.97,-0.43 -0.97,-0.97c0,-3.41 3.34,-6.76 6.75,-6.76" style="fill:#d9d9d9;fill-rule:nonzero;"/></g><rect id="Artboard1" x="0" y="0" width="40.405" height="40.392" style="fill:none;"/><g id="HandleLayer"><g id="Handle"><path d="M32.679,29.02l-4,4l-4.75,-4.75l0.5,-0.5l3,-3l0.5,-0.5l4.75,4.75Z" style="fill:#ffea29;fill-rule:nonzero;"/><path d="M38.679,39.02c-1.105,1.105 -2.895,1.105 -4,0l-8,-8l4,-4l8,8c1.105,1.105 1.105,2.895 0,4" style="fill:#2c2c3d;fill-rule:nonzero;"/></g></g></svg>