<?xml version="1.0" encoding="UTF-8" standalone="no"?><!DOCTYPE svg PUBLIC "-//W3C//DTD SVG 1.1//EN" "http://www.w3.org/Graphics/SVG/1.1/DTD/svg11.dtd"><svg width="500" height="500" viewBox="0 0 305 209" version="1.1" xmlns="http://www.w3.org/2000/svg" xmlns:xlink="http://www.w3.org/1999/xlink" xml:space="preserve" xmlns:serif="http://www.serif.com/" style="fill-rule:evenodd;clip-rule:evenodd;stroke-linejoin:round;stroke-miterlimit:2;"><rect id="Artboard1" x="0" y="0" width="304.945" height="208.037" style="fill:none;"/><g id="BACKGROUND"></g><g id="OBJECTS"><g><path d="M73.785,75.242l-13.145,0c-6.306,0 -11.465,-5.16 -11.465,-11.466l0,-38.897c0,-6.307 5.159,-11.466 11.465,-11.466l13.145,0c6.306,0 11.465,5.159 11.465,11.466l0,38.897c0,6.306 -5.159,11.466 -11.465,11.466" style="fill:#404041;"/><path d="M246.839,75.242l-13.145,0c-6.306,0 -11.465,-5.16 -11.465,-11.466l0,-38.897c0,-6.307 5.159,-11.466 11.465,-11.466l13.145,0c6.306,0 11.466,5.159 11.466,11.466l0,38.897c0,6.306 -5.16,11.466 -11.466,11.466" style="fill:#404041;"/><path d="M69.476,133.366c-4.008,0 -7.277,3.401 -7.277,7.57c0,4.17 3.269,7.571 7.277,7.571c4.008,0 7.277,-3.401 7.277,-7.571c0,-4.169 -3.269,-7.57 -7.277,-7.57" style="fill:#dca74e;"/><path d="M69.476,148.507c-2.037,0 -3.878,-0.871 -5.199,-2.274c-0.554,-1.069 -0.869,-2.291 -0.869,-3.59c0,-4.181 3.258,-7.571 7.277,-7.571c2.037,0 3.878,0.872 5.199,2.275c0.554,1.068 0.869,2.29 0.869,3.59c0,4.181 -3.258,7.57 -7.277,7.57" style="fill:#e6af54;"/><path d="M80.085,137.764l-8.277,0.826l-0.12,-1.199l8.237,-1.613l0.16,1.986Z" style="fill:#bbbdbf;"/><path d="M71.035,136.698c-0.837,0 -1.519,0.683 -1.519,1.519c0,0.837 0.682,1.52 1.519,1.52c0.837,0 1.52,-0.683 1.52,-1.52c0,-0.836 -0.683,-1.519 -1.52,-1.519" style="fill:#d0d2d3;"/><path d="M237.938,133.366c-4.008,0 -7.277,3.401 -7.277,7.57c0,4.17 3.269,7.571 7.277,7.571c4.008,0 7.277,-3.401 7.277,-7.571c0,-4.169 -3.269,-7.57 -7.277,-7.57" style="fill:#dca74e;"/><path d="M237.939,148.507c2.037,0 3.878,-0.871 5.199,-2.274c0.554,-1.069 0.869,-2.291 0.869,-3.59c0,-4.181 -3.258,-7.571 -7.277,-7.571c-2.037,0 -3.878,0.872 -5.199,2.275c-0.554,1.068 -0.869,2.29 -0.869,3.59c0,4.181 3.258,7.57 7.277,7.57" style="fill:#e6af54;"/><path d="M227.33,137.764l8.277,0.826l0.119,-1.199l-8.236,-1.613l-0.16,1.986Z" style="fill:#bbbdbf;"/><path d="M236.379,136.698c-0.837,0 -1.519,0.683 -1.519,1.519c0,0.837 0.682,1.52 1.519,1.52c0.837,0 1.519,-0.683 1.519,-1.52c0,-0.836 -0.682,-1.519 -1.519,-1.519" style="fill:#d0d2d3;"/><path d="M252.852,92.641c4.049,-0.127 3.346,-5.159 1.247,-5.518l-1.247,5.518Z" style="fill:#f48120;"/><path d="M54.563,92.641c-4.049,-0.127 -3.346,-5.159 -1.248,-5.518l1.248,5.518Z" style="fill:#f48120;"/><path d="M250.498,92.711l2.354,0.383c0.533,0.086 1.038,-0.278 1.125,-0.81l0.785,-4.828c0.086,-0.532 -0.278,-1.038 -0.81,-1.124l-2.355,-0.383c-0.532,-0.086 -1.038,0.278 -1.124,0.81l-0.785,4.828c-0.086,0.532 0.278,1.038 0.81,1.124" style="fill:#e6e7e8;"/><path d="M56.917,92.711l-2.355,0.383c-0.532,0.086 -1.037,-0.278 -1.124,-0.81l-0.785,-4.828c-0.086,-0.532 0.278,-1.038 0.81,-1.124l2.355,-0.383c0.532,-0.086 1.037,0.278 1.124,0.81l0.785,4.828c0.086,0.532 -0.278,1.038 -0.81,1.124" style="fill:#e6e7e8;"/><path d="M217.207,178.06c6.437,-6.914 11.676,-42.33 13.169,-45.849c1.492,-3.518 4.158,-5.971 5.757,-9.489c1.6,-3.519 1.493,-4.265 1.493,-4.265c0,0 8.423,-7.251 11.836,-13.968c3.412,-6.717 2.878,-12.049 3.838,-15.247c0.96,-3.199 2.559,-8.423 3.519,-18.34c0.959,-9.916 0,-18.712 -0.427,-22.764c-0.426,-4.052 -5.171,-11.835 -9.969,-16.846c-4.798,-5.012 -92.715,-6.185 -92.715,-6.185c0,0 -87.917,1.173 -92.715,6.185c-4.799,5.011 -9.543,12.794 -9.97,16.846c-0.426,4.052 -1.386,12.848 -0.426,22.764c0.959,9.917 2.559,15.141 3.519,18.34c0.959,3.198 0.426,8.53 3.838,15.247c3.412,6.717 11.835,13.968 11.835,13.968c0,0 -0.106,0.746 1.493,4.265c1.6,3.518 4.265,5.971 5.758,9.489c1.493,3.519 6.749,38.918 13.168,45.849c15.922,17.187 110.997,17.186 126.999,0" style="fill:#e6af54;"/><path d="M197.429,180.939c13.168,-2.879 15.141,-4.638 18.073,-8.423c2.932,-3.785 5.865,-19.672 6.665,-23.724c0.799,-4.052 -0.427,-6.824 -1.653,-8.797c-1.226,-1.972 -9.729,-3.172 -13.781,-2.825c-36.351,3.109 -69.701,3.109 -106.052,0c-4.052,-0.347 -12.555,0.853 -13.781,2.825c-1.226,1.973 -2.452,4.745 -1.653,8.797c0.8,4.052 3.733,19.939 6.665,23.724c2.932,3.785 4.905,5.544 18.073,8.423c16.589,3.627 70.855,3.627 87.444,0" style="fill:#231f20;"/><path d="M129.236,138.993c-9.381,-0.387 -18.861,-0.995 -28.554,-1.824c-4.052,-0.346 -12.555,0.853 -13.781,2.826c-1.226,1.973 -2.452,4.745 -1.653,8.796c0.8,4.052 3.732,19.939 6.665,23.724c2.932,3.785 4.904,5.545 18.072,8.424c11.467,2.507 40.935,3.28 63.518,2.321l-44.267,-44.267Z" style="fill:#58595b;"/><path d="M153.707,49.791c0,0 78.537,-0.32 78.804,0.16c0.266,0.48 1.386,0.906 2.772,1.066c1.386,0.16 15.169,0.612 18.179,-0.746c3.011,-1.358 4.319,-2.985 4.052,-7.304c-0.266,-4.318 -3.366,-4.727 -9.39,-5.366c-6.024,-0.64 -41.683,-1.938 -60.875,-2.257c-19.192,-0.32 -33.542,0 -33.542,0l0,14.447Z" style="fill:#a6a8ab;"/><path d="M153.707,49.791c0,0 -78.537,-0.32 -78.804,0.16c-0.266,0.48 -1.386,0.906 -2.772,1.066c-1.386,0.16 -15.169,0.612 -18.179,-0.746c-3.011,-1.358 -4.319,-2.985 -4.052,-7.304c0.266,-4.318 3.366,-4.727 9.39,-5.366c6.024,-0.64 41.683,-1.938 60.875,-2.257c19.192,-0.32 33.542,0 33.542,0l0,14.447Z" style="fill:#a6a8ab;"/><path d="M204.784,60.24l-2.282,0c-2.319,0 -4.217,-1.897 -4.217,-4.217l0,-19.182c0,-2.319 1.898,-4.217 4.217,-4.217l2.282,0c2.319,0 4.217,1.898 4.217,4.217l0,19.182c0,2.32 -1.898,4.217 -4.217,4.217" style="fill:#bbbdbf;"/><path d="M102.63,60.24l2.282,0c2.319,0 4.217,-1.897 4.217,-4.217l0,-19.182c0,-2.319 -1.898,-4.217 -4.217,-4.217l-2.282,0c-2.319,0 -4.217,1.898 -4.217,4.217l0,19.182c0,2.32 1.898,4.217 4.217,4.217" style="fill:#bbbdbf;"/><path d="M204.615,58.868l-1.624,0c-1.65,0 -3,-1.35 -3,-3l0,-19.178c0,-1.65 1.35,-3 3,-3l1.624,0c1.65,0 3,1.35 3,3l0,19.178c0,1.65 -1.35,3 -3,3" style="fill:#404041;"/><path d="M102.799,58.868l1.624,0c1.65,0 3,-1.35 3,-3l0,-19.178c0,-1.65 -1.35,-3 -3,-3l-1.624,0c-1.65,0 -3,1.35 -3,3l0,19.178c0,1.65 1.35,3 3,3" style="fill:#404041;"/><path d="M241.948,54.963c-4.199,0 -7.623,3.425 -7.623,7.624c0,4.199 3.424,7.623 7.623,7.623c4.199,0 7.624,-3.424 7.624,-7.623c0,-4.199 -3.425,-7.624 -7.624,-7.624" style="fill:#e6e7e8;"/><path d="M65.466,54.963c-4.199,0 -7.623,3.425 -7.623,7.624c0,4.199 3.424,7.623 7.623,7.623c4.199,0 7.624,-3.424 7.624,-7.623c0,-4.199 -3.425,-7.624 -7.624,-7.624" style="fill:#e6e7e8;"/><path d="M236.458,72.555c-8.707,0 -15.809,7.005 -15.809,15.594c0,8.589 7.102,15.593 15.809,15.593c8.707,0 15.809,-7.004 15.809,-15.593c0,-8.589 -7.102,-15.594 -15.809,-15.594" style="fill:#bbbdbf;"/><path d="M70.957,72.555c-8.707,0 -15.809,7.005 -15.809,15.594c0,8.589 7.102,15.593 15.809,15.593c8.707,0 15.809,-7.004 15.809,-15.593c0,-8.589 -7.102,-15.594 -15.809,-15.594" style="fill:#bbbdbf;"/><path d="M236.457,74.635c-7.546,0 -13.701,6.071 -13.701,13.515c0,7.443 6.155,13.514 13.701,13.514c7.546,0 13.701,-6.071 13.701,-13.514c0,-7.444 -6.155,-13.515 -13.701,-13.515" style="fill:#e6e7e8;"/><path d="M70.957,74.635c-7.546,0 -13.701,6.071 -13.701,13.515c0,7.443 6.155,13.514 13.701,13.514c7.546,0 13.701,-6.071 13.701,-13.514c0,-7.444 -6.155,-13.515 -13.701,-13.515" style="fill:#e6e7e8;"/><path d="M212.87,95.982c0.24,0.986 3.591,13.078 9.168,17.81c5.306,4.502 10.299,5.782 15.482,5.322c0.127,-0.502 0.105,-0.657 0.105,-0.657c0,0 0.007,-0.006 0.021,-0.018c-0.334,0.045 -0.849,0.091 -1.639,0.111c-2.391,0.06 -7.371,-1.133 -10.836,-3.319c-3.465,-2.186 -5.931,-5.584 -7.611,-8.73c-1.679,-3.145 -4.092,-11.635 -4.092,-11.635c-52.2,2.318 -67.32,2.318 -119.522,0c0,0 -2.413,8.49 -4.092,11.635c-1.679,3.146 -4.145,6.544 -7.611,8.73c-3.465,2.186 -8.445,3.379 -10.836,3.319c-0.79,-0.02 -1.305,-0.066 -1.639,-0.111c0.014,0.012 0.021,0.018 0.021,0.018c0,0 -0.022,0.155 0.105,0.657c5.183,0.46 10.176,-0.82 15.482,-5.322c5.577,-4.732 8.928,-16.824 9.168,-17.81c39.818,2.79 78.508,2.79 118.326,0" style="fill:#58595b;"/><path d="M215.876,81.914c-2.498,6.749 -0.311,13.038 -0.311,13.038c2.256,-29.369 26.953,-22.824 26.923,-22.844c-11.898,-7.785 -24.12,3.074 -26.612,9.806" style="fill:#d39a36;"/><path d="M91.539,81.914c2.498,6.749 0.311,13.038 0.311,13.038c-2.256,-29.369 -26.953,-22.824 -26.923,-22.844c11.898,-7.785 24.12,3.074 26.612,9.806" style="fill:#d39a36;"/><path d="M211.359,96.834c1.261,12.19 5.448,18.786 16.473,24.684c0,0 -0.106,5.331 -2.345,8.21c-7.616,9.792 -135.944,9.792 -143.56,0c-2.239,-2.879 -2.346,-8.21 -2.346,-8.21c11.026,-5.898 15.213,-12.494 16.474,-24.684c12.427,2.626 102.876,2.626 115.304,0" style="fill:#f0ba61;"/><path d="M153.707,138.738c-0.462,0 -0.839,-11.627 -0.839,-12.088l0,-20.713c0,-0.461 0.377,-6.224 0.839,-6.224c0.461,0 0.839,5.736 0.839,6.198l0,20.632c0,0.462 -0.377,12.195 -0.839,12.195" style="fill:#d0d2d3;"/><path d="M178.483,90.597l-49.55,0c-10.224,0 -18.588,-8.364 -18.588,-18.588l0,-18.588l86.726,0l0,18.588c0,10.224 -8.364,18.588 -18.588,18.588" style="fill:#404041;"/><g><clipPath id="_clip1"><path d="M178.483,90.596c10.223,0 18.588,-8.363 18.588,-18.587l0,-18.589l-86.727,0l0,18.589c0,10.224 8.365,18.587 18.589,18.587l49.55,0Z" clip-rule="nonzero"/></clipPath><g clip-path="url(#_clip1)"><rect x="95.81" y="86.936" width="115.794" height="1.493" style="fill:#929497;"/><rect x="95.81" y="82.458" width="115.794" height="1.493" style="fill:#929497;"/><rect x="95.81" y="77.979" width="115.794" height="1.493" style="fill:#929497;"/><rect x="95.81" y="73.501" width="115.794" height="1.493" style="fill:#929497;"/><rect x="95.81" y="69.023" width="115.794" height="1.493" style="fill:#929497;"/><rect x="95.81" y="64.544" width="115.794" height="1.493" style="fill:#929497;"/><rect x="95.81" y="60.066" width="115.794" height="1.493" style="fill:#929497;"/><rect x="95.81" y="55.588" width="115.794" height="1.493" style="fill:#929497;"/></g></g></g></g></svg>