<?xml version="1.0" encoding="UTF-8" standalone="no"?><!DOCTYPE svg PUBLIC "-//W3C//DTD SVG 1.1//EN" "http://www.w3.org/Graphics/SVG/1.1/DTD/svg11.dtd"><svg width="500" height="500" viewBox="0 0 305 209" version="1.1" xmlns="http://www.w3.org/2000/svg" xmlns:xlink="http://www.w3.org/1999/xlink" xml:space="preserve" xmlns:serif="http://www.serif.com/" style="fill-rule:evenodd;clip-rule:evenodd;stroke-linejoin:round;stroke-miterlimit:2;"><rect id="Artboard1" x="0" y="0" width="304.945" height="208.037" style="fill:none;"/><g id="BACKGROUND"></g><g id="OBJECTS"><g><path d="M227.71,135.063c0.416,0.046 2.452,-0.046 2.452,-0.046c0,0 -0.139,3.978 0.971,6.06c1.111,2.082 4.442,2.406 7.541,2.359c3.099,-0.046 8.188,-1.804 9.9,-5.042c1.505,-2.849 0.744,-7.167 -2.565,-8.292c-2.578,-0.877 -6.973,-1.351 -9.093,-1.654c-2.915,-0.417 -7.355,-0.972 -7.355,-0.74c0,0.231 -1.851,7.355 -1.851,7.355" style="fill:#e9bc20;"/><path d="M227.71,135.063c0.416,0.046 2.452,-0.046 2.452,-0.046c0,0 -0.139,3.978 0.971,6.06c1.111,2.082 4.442,2.406 7.541,2.359c1.634,-0.024 3.822,-0.525 5.776,-1.467c0.551,-0.518 1.014,-1.093 1.348,-1.725c1.506,-2.849 0.745,-7.167 -2.565,-8.292c-2.577,-0.877 -6.973,-1.351 -9.093,-1.654c-1.548,-0.221 -3.528,-0.482 -5.044,-0.642c-0.548,2.181 -1.386,5.407 -1.386,5.407" style="fill:#ffca05;"/><path d="M78.296,135.486c-0.416,0.046 -2.452,-0.046 -2.452,-0.046c0,0 0.139,3.978 -0.971,6.06c-1.111,2.082 -4.442,2.406 -7.541,2.359c-3.099,-0.046 -8.188,-1.804 -9.9,-5.042c-1.505,-2.849 -0.744,-7.167 2.565,-8.292c2.578,-0.877 6.973,-1.351 9.093,-1.654c2.915,-0.416 7.355,-0.972 7.355,-0.74c0,0.231 1.851,7.355 1.851,7.355" style="fill:#e9bc20;"/><path d="M78.296,135.486c-0.416,0.046 -2.452,-0.046 -2.452,-0.046c0,0 0.139,3.978 -0.971,6.06c-1.111,2.082 -4.442,2.406 -7.541,2.359c-1.634,-0.024 -3.822,-0.525 -5.776,-1.467c-0.551,-0.517 -1.014,-1.093 -1.348,-1.725c-1.506,-2.849 -0.745,-7.167 2.565,-8.292c2.578,-0.877 6.973,-1.351 9.093,-1.654c1.548,-0.221 3.528,-0.482 5.044,-0.642c0.548,2.181 1.386,5.407 1.386,5.407" style="fill:#ffca05;"/><path d="M77.426,88.419l-11.655,0c-5.591,0 -10.165,-4.574 -10.165,-10.165l0,-44.99c0,-5.591 4.574,-10.165 10.165,-10.165l11.655,0c5.591,0 10.165,4.574 10.165,10.165l0,44.99c0,5.591 -4.574,10.165 -10.165,10.165" style="fill:#404041;"/><path d="M240.007,88.419l-11.655,0c-5.591,0 -10.165,-4.574 -10.165,-10.165l0,-44.99c0,-5.591 4.574,-10.165 10.165,-10.165l11.655,0c5.591,0 10.165,4.574 10.165,10.165l0,44.99c0,5.591 -4.574,10.165 -10.165,10.165" style="fill:#404041;"/><path d="M152.816,186.665c14.542,-0.719 33.66,0.345 45.236,-2.565c8.919,-2.242 14.603,-7.827 18.026,-15.16c4.05,-8.671 9.948,-21.729 11.355,-27.749c1.989,-8.512 4.302,-17.07 4.302,-17.07c0,0 9.531,-4.395 11.844,-7.078c2.313,-2.683 3.515,-5.875 4.718,-13.185c1.203,-7.309 0.926,-26.183 0.741,-35.805c-0.185,-9.623 -2.036,-14.156 -4.904,-17.487c-9.992,-11.603 -55.975,-14.42 -91.318,-13.323c-35.343,-1.097 -81.327,1.72 -91.318,13.323c-2.869,3.331 -4.719,7.864 -4.904,17.487c-0.185,9.622 -0.462,28.496 0.74,35.805c1.203,7.31 2.406,10.502 4.719,13.185c2.313,2.683 11.843,7.078 11.843,7.078c0,0 2.313,8.558 4.303,17.07c1.406,6.02 7.305,19.078 11.354,27.749c3.424,7.333 9.107,12.918 18.026,15.16c11.577,2.91 30.694,1.846 45.237,2.565m0,-34.418c0.369,-0.732 0.002,34.232 0,34.414c-0.002,-0.182 -0.369,-35.146 0,-34.414" style="fill:#ffca05;"/><path d="M243.579,117.043c0,0 1.058,-33.581 0.34,-34.703c-0.719,-1.122 -11.337,-3.139 -35.994,-8.737c-24.657,-5.597 -55.109,-6.569 -55.109,-6.569l0,44.88l77.659,16.991c0.749,-2.891 1.261,-4.784 1.261,-4.784c0,0 9.53,-4.395 11.843,-7.078" style="fill:#ffca05;"/><path d="M230.985,126.95c-0.358,0.834 -0.896,1.739 -1.703,2.513c-2.174,2.081 -4.437,2.706 -4.437,2.706c-22.405,-8.521 -11.781,-35.035 -72.028,-40.513c0,0 29.818,-11.327 50.004,2.695c20.186,14.022 28.913,24.671 33.979,27.232c-2.676,1.436 -5.064,2.537 -5.064,2.537c0,0 -0.289,1.071 -0.751,2.83" style="fill:#ffca05;"/><path d="M227.825,86.476c-7.587,0 -13.774,6.299 -13.774,14.023c0,7.724 6.187,14.023 13.774,14.023c7.587,0 13.774,-6.299 13.774,-14.023c0,-7.724 -6.187,-14.023 -13.774,-14.023" style="fill:#404041;"/><path d="M200.512,180.697c11.919,-4.928 28.045,-44.072 24.333,-48.528c-1.077,-1.292 -142.98,-1.292 -144.057,0c-3.712,4.456 12.414,43.6 24.333,48.528c11.884,4.913 83.669,4.846 95.391,0" style="fill:#404041;"/><path d="M127.383,131.257c-25.538,0.118 -46.187,0.423 -46.596,0.913c-3.712,4.455 12.414,43.599 24.334,48.527c8.618,3.563 48.739,4.506 74.609,2.907l-52.347,-52.347Z" style="fill:#6d6e70;"/><path d="M232.548,63.912l-0.475,-0.041c-0.091,0.004 -0.183,0.006 -0.276,0.006c-0.45,0 -0.888,-0.05 -1.31,-0.145l-27.638,-2.411l-4.442,-13.415l32.661,3.145l0.006,0.056c0.237,-0.029 0.478,-0.044 0.723,-0.044c3.407,0 6.17,2.868 6.17,6.407c0,3.278 -2.371,5.98 -5.428,6.361l0.009,0.081Z" style="fill:#404041;"/><path d="M73.084,63.912l0.474,-0.041c0.092,0.004 0.185,0.006 0.277,0.006c0.45,0 0.888,-0.05 1.31,-0.145l27.638,-2.411l4.441,-13.415l-32.66,3.145l-0.006,0.056c-0.237,-0.029 -0.478,-0.044 -0.723,-0.044c-3.407,0 -6.169,2.868 -6.169,6.407c0,3.278 2.37,5.98 5.427,6.361l-0.009,0.081Z" style="fill:#404041;"/><path d="M196.073,59.714c-0.335,-1.95 -1.349,-7.018 -3.158,-9.345c-2.267,-2.914 -5.505,-4.163 -8.559,-4.626c-10.978,-1.663 -52.102,-1.663 -63.081,0c-3.053,0.463 -6.291,1.712 -8.558,4.626c-1.809,2.327 -2.823,7.395 -3.158,9.345c-0.229,1.334 0.56,1.293 2.21,1.376c13.656,0.695 68.438,0.695 82.094,0c1.649,-0.083 2.439,-0.042 2.21,-1.376" style="fill:#404041;"/><path d="M227.784,87.575c-7.364,0 -13.37,6.006 -13.37,13.37c0,7.363 6.006,13.369 13.37,13.369c7.364,0 13.369,-6.006 13.369,-13.369c0,-7.364 -6.005,-13.37 -13.369,-13.37" style="fill:#bbbdbf;"/><path d="M227.784,88.5c-6.854,0 -12.444,5.59 -12.444,12.444c0,6.854 5.59,12.444 12.444,12.444c6.854,0 12.444,-5.59 12.444,-12.444c0,-6.854 -5.59,-12.444 -12.444,-12.444" style="fill:#e6e7e8;"/><path d="M227.784,100.343c-2.994,0 -5.436,2.442 -5.436,5.436c0,2.994 2.442,5.436 5.436,5.436c2.994,0 5.436,-2.442 5.436,-5.436c0,-2.994 -2.442,-5.436 -5.436,-5.436" style="fill:#d0d2d3;"/><path d="M242.549,79.837l-16.352,-3.175c-0.986,-0.191 -1.703,-1.167 -1.595,-2.169l0.177,-1.632c0.108,-1.001 1.003,-1.664 1.989,-1.473l16.352,3.175c0.985,0.191 1.703,1.167 1.595,2.169l-0.177,1.632c-0.108,1.001 -1.003,1.664 -1.989,1.473" style="fill:#f48245;"/><path d="M63.083,79.837l16.352,-3.175c0.986,-0.191 1.703,-1.167 1.595,-2.169l-0.177,-1.632c-0.108,-1.001 -1.003,-1.664 -1.989,-1.473l-16.352,3.175c-0.985,0.191 -1.703,1.167 -1.595,2.169l0.177,1.632c0.109,1.001 1.003,1.664 1.989,1.473" style="fill:#f48245;"/><path d="M231.131,53.353c-2.293,0 -4.164,1.871 -4.164,4.164c0,2.293 1.871,4.163 4.164,4.163c2.293,0 4.163,-1.87 4.163,-4.163c0,-2.293 -1.87,-4.164 -4.163,-4.164" style="fill:#e6e7e8;"/><path d="M74.502,53.353c-2.293,0 -4.164,1.871 -4.164,4.164c0,2.293 1.871,4.163 4.164,4.163c2.293,0 4.163,-1.87 4.163,-4.163c0,-2.293 -1.87,-4.164 -4.163,-4.164" style="fill:#e6e7e8;"/><path d="M74.648,126.952l0,-0.001l0,0.001m6.299,5.157c-0.088,0.02 -0.142,0.04 -0.159,0.061c0,0 -2.263,-0.625 -4.437,-2.707c-0.807,-0.773 -1.345,-1.678 -1.703,-2.511l0,-0.001c-0.262,-0.999 -0.469,-1.776 -0.599,-2.261c18.426,3.43 19.092,-16.555 33.428,-25.735c7.223,-4.626 14.118,-6.01 25.109,-6.629c0.333,-0.4 0.836,-0.656 1.395,-0.656l18.408,0l0.428,-0.013c0.042,0.004 0.083,0.009 0.125,0.013l-0.252,0c0.043,-0.004 0.083,-0.009 0.127,-0.013l0.427,0.013l18.408,0c0.559,0 1.061,0.256 1.395,0.656c10.991,0.62 17.885,2.003 25.108,6.629c14.337,9.18 15.002,29.165 33.428,25.735c-0.129,0.485 -0.336,1.262 -0.598,2.261l0,0.001c-0.358,0.833 -0.896,1.738 -1.703,2.511c-2.174,2.082 -4.437,2.707 -4.437,2.707c-0.017,-0.021 -0.071,-0.041 -0.16,-0.061c-24.288,-9.396 -15.064,-38.725 -71.882,-38.556c-57.263,0.172 -47.393,29.092 -71.856,38.556m150.038,-5.157l0,-0.001l0,0.001Z" style="fill:#ffd743;"/><path d="M77.948,86.922c-7.586,0 -13.774,6.299 -13.774,14.023c0,7.724 6.188,14.023 13.774,14.023c7.586,0 13.774,-6.299 13.774,-14.023c0,-7.724 -6.188,-14.023 -13.774,-14.023" style="fill:#404041;"/><path d="M77.907,88.02c-7.364,0 -13.369,6.006 -13.369,13.37c0,7.363 6.005,13.369 13.369,13.369c7.364,0 13.369,-6.006 13.369,-13.369c0,-7.364 -6.005,-13.37 -13.369,-13.37" style="fill:#bbbdbf;"/><path d="M77.907,88.946c-6.854,0 -12.444,5.59 -12.444,12.444c0,6.854 5.59,12.444 12.444,12.444c6.854,0 12.444,-5.59 12.444,-12.444c0,-6.854 -5.59,-12.444 -12.444,-12.444" style="fill:#e6e7e8;"/><path d="M77.907,100.789c-2.994,0 -5.436,2.442 -5.436,5.436c0,2.994 2.442,5.435 5.436,5.435c2.994,0 5.436,-2.441 5.436,-5.435c0,-2.994 -2.442,-5.436 -5.436,-5.436" style="fill:#d0d2d3;"/><path d="M231.736,124.121c-18.387,3.634 -19.036,-17.05 -33.372,-26.23c-10.853,-6.95 -21.17,-6.224 -45.547,-6.939c-24.379,0.715 -34.695,-0.011 -45.548,6.939c-14.336,9.18 -14.985,29.864 -33.372,26.23c0,0 0.054,0.2 0.152,0.569c18.427,3.43 19.092,-16.555 33.428,-25.735c10.853,-6.95 20.961,-6.583 45.34,-7.298c24.377,0.715 34.486,0.348 45.338,7.298c14.337,9.18 15.002,29.165 33.428,25.735c0.099,-0.369 0.153,-0.569 0.153,-0.569" style="fill:#404041;"/><path d="M228.007,114.52c-0.061,0.001 -0.121,0.001 -0.181,0.001c-6.835,0 -12.507,-5.067 -13.589,-11.713c-0.122,-0.752 -0.186,-1.523 -0.186,-2.31c0,-6.208 3.963,-11.473 9.453,-13.319c1.359,-0.457 2.812,-0.704 4.322,-0.704c2.555,0 4.948,0.709 6.999,1.943c4.055,2.441 6.775,6.937 6.775,12.08c0,7.683 -6.069,13.923 -13.593,14.022m-73.278,-23.514c23.014,0.627 33.07,0.119 43.635,6.884c14.336,9.181 14.985,29.865 33.372,26.231c0,0 2.388,-1.102 5.063,-2.538c2.669,-1.433 5.625,-3.201 6.78,-4.541c0,0 0.624,-19.826 0.588,-29.519c-0.011,-2.922 -0.082,-4.924 -0.248,-5.183c-0.61,-0.952 -8.345,-2.549 -25.732,-6.428c-3.108,-0.694 -6.524,-1.461 -10.262,-2.309c-24.657,-5.598 -55.109,-6.569 -55.109,-6.569l0,23.917c0.648,0.019 1.285,0.037 1.913,0.055m-1.913,-0.055l-0.001,0l0,0.001l0.001,0l0,-0.001Z" style="fill:#ffd636;"/><path d="M77.625,114.52c0.06,0.001 0.121,0.001 0.181,0.001c6.835,0 12.507,-5.067 13.589,-11.713c0.122,-0.752 0.186,-1.523 0.186,-2.31c0,-6.208 -3.963,-11.473 -9.453,-13.319c-1.36,-0.457 -2.812,-0.704 -4.322,-0.704c-2.555,0 -4.948,0.709 -6.999,1.943c-4.055,2.441 -6.775,6.937 -6.775,12.08c0,7.683 6.069,13.923 13.593,14.022m73.278,-23.514c-23.014,0.627 -33.07,0.119 -43.635,6.884c-14.336,9.181 -14.985,29.865 -33.372,26.231c0,0 -2.388,-1.102 -5.063,-2.538c-2.67,-1.433 -5.625,-3.201 -6.78,-4.541c0,0 -0.625,-19.826 -0.588,-29.519c0.011,-2.922 0.082,-4.924 0.249,-5.183c0.609,-0.952 8.344,-2.549 25.731,-6.428c3.107,-0.694 6.524,-1.461 10.262,-2.309c24.657,-5.598 55.109,-6.569 55.109,-6.569l-0.001,23.917c-0.647,0.019 -1.284,0.037 -1.912,0.055m1.913,-0.055l-0.001,0l0,0.001l0.001,0l0,-0.001Z" style="fill:#ffd636;"/></g></g></svg>