<?xml version="1.0" encoding="UTF-8" standalone="no"?><!DOCTYPE svg PUBLIC "-//W3C//DTD SVG 1.1//EN" "http://www.w3.org/Graphics/SVG/1.1/DTD/svg11.dtd"><svg width="500" height="500" viewBox="0 0 305 209" version="1.1" xmlns="http://www.w3.org/2000/svg" xmlns:xlink="http://www.w3.org/1999/xlink" xml:space="preserve" xmlns:serif="http://www.serif.com/" style="fill-rule:evenodd;clip-rule:evenodd;stroke-linejoin:round;stroke-miterlimit:2;"><rect id="Artboard1" x="0" y="0" width="304.945" height="208.037" style="fill:none;"/><clipPath id="_clip1"><rect x="0" y="0" width="304.945" height="208.037"/></clipPath><g clip-path="url(#_clip1)"><g id="BACKGROUND"></g><g id="OBJECTS"><path d="M105.704,219.228c-11.919,4.928 -28.045,44.072 -24.333,48.528c1.077,1.292 142.98,1.292 144.057,0c3.712,-4.456 -12.414,-43.6 -24.333,-48.528c-11.884,-4.913 -83.669,-4.846 -95.391,0" style="fill:#404041;"/><path d="M178.832,268.668c25.538,-0.118 46.187,-0.423 46.596,-0.913c3.712,-4.455 -12.414,-43.599 -24.334,-48.527c-8.618,-3.563 -48.739,-4.506 -74.609,-2.907l52.347,52.347Z" style="fill:#6d6e70;"/><g><path d="M64.389,87.316l-11.497,0c-5.516,0 -10.028,-4.513 -10.028,-10.028l0,-32.637c0,-5.516 4.512,-10.029 10.028,-10.029l11.497,0c5.516,0 10.028,4.513 10.028,10.029l0,32.637c0,5.515 -4.512,10.028 -10.028,10.028" style="fill:#404041;"/><path d="M252.492,87.316l-11.497,0c-5.516,0 -10.028,-4.513 -10.028,-10.028l0,-32.637c0,-5.516 4.512,-10.029 10.028,-10.029l11.497,0c5.516,0 10.028,4.513 10.028,10.029l0,32.637c0,5.515 -4.512,10.028 -10.028,10.028" style="fill:#404041;"/><path d="M236.821,140.201c0.62,0.066 4.201,0.789 8.333,3.155c4.133,2.367 3.006,6.185 -1.712,7.145c-4.717,0.961 -8.962,-0.111 -10.615,-1.163c-1.653,-1.051 3.994,-9.137 3.994,-9.137" style="fill:#808185;"/><path d="M68.563,140.201c-0.62,0.066 -4.201,0.789 -8.333,3.155c-4.132,2.367 -3.006,6.185 1.712,7.145c4.717,0.961 8.962,-0.111 10.615,-1.163c1.653,-1.051 -3.994,-9.137 -3.994,-9.137" style="fill:#808185;"/><path d="M219.031,172.499c0.861,-0.319 19.919,-30.803 19.919,-30.803c0,0 29.572,-7.803 32.704,-11.14c3.132,-3.337 9.703,-15.145 10.011,-16.941c0.309,-1.797 -1.026,-17.045 -1.026,-17.507c0,-0.462 -4.671,-12.732 -6.879,-15.35c-2.207,-2.618 -4.363,-2.105 -4.363,-2.105c0,0 -6.982,-7.085 -10.832,-13.04c-3.85,-5.955 -4.261,-8.162 -6.468,-8.779c-2.208,-0.616 -21.664,-1.386 -21.921,-1.232c-0.256,0.154 0.103,1.592 -0.975,1.849c-1.078,0.256 -72.387,-1.54 -72.695,-2.105c-0.307,-0.565 -0.821,-2.208 -1.437,-2.362c-0.615,-0.154 -2.368,-0.256 -2.377,-0.256c-0.008,0 -1.762,0.102 -2.376,0.256c-0.617,0.154 -1.13,1.797 -1.438,2.362c-0.308,0.565 -71.616,2.361 -72.695,2.105c-1.078,-0.257 -0.718,-1.695 -0.975,-1.849c-0.256,-0.154 -19.713,0.616 -21.92,1.232c-2.208,0.617 -2.619,2.824 -6.469,8.779c-3.85,5.955 -10.831,13.04 -10.831,13.04c0,0 -2.157,-0.513 -4.364,2.105c-2.208,2.618 -6.879,14.888 -6.879,15.35c0,0.462 -1.334,15.71 -1.026,17.507c0.308,1.796 6.88,13.604 10.012,16.941c3.131,3.337 32.703,11.14 32.703,11.14c0,0 19.059,30.483 19.919,30.803c12.89,4.795 120.063,4.678 132.678,0" style="fill:#929497;"/><path d="M238.95,141.696c0,0 29.572,-7.803 32.703,-11.14c1.437,-1.531 3.597,-4.843 5.544,-8.155l-6.381,-1.651c0,0 -0.748,-0.804 -1.056,-0.907c-0.308,-0.103 -44.921,-0.873 -44.921,-0.873l-137.792,0.924l-52.48,0.856l-6.381,1.651c1.948,3.312 4.108,6.624 5.544,8.155c3.132,3.337 32.704,11.14 32.704,11.14l5.228,0.873l84.69,4.534l77.37,-4.534l5.228,-0.873Z" style="fill:#8d8f92;"/><path d="M242.96,60.377c-3.648,0 -6.623,2.975 -6.623,6.623c0,3.647 2.975,6.622 6.623,6.622c3.648,0 6.623,-2.975 6.623,-6.622c0,-3.648 -2.975,-6.623 -6.623,-6.623" style="fill:#fff;"/><path d="M62.424,60.377c-3.648,0 -6.623,2.975 -6.623,6.623c0,3.647 2.975,6.622 6.623,6.622c3.648,0 6.623,-2.975 6.623,-6.622c0,-3.648 -2.975,-6.623 -6.623,-6.623" style="fill:#fff;"/><path d="M152.699,122.841l-0.006,0.263c-0.002,-0.091 0,-0.179 0.006,-0.263m-0.007,0.271l0.001,0c0.008,0 114.582,-1.437 118.124,-2.361c3.543,-0.924 8.523,-6.726 8.625,-7.65c0.103,-0.924 -1.257,-13.553 -1.411,-13.784c-0.154,-0.231 -1.335,-0.18 -1.694,-1.027c-0.359,-0.846 -1.463,-3.978 -2.464,-4.646c-1.001,-0.667 -121.172,-2.413 -121.18,-2.413l-0.001,0c-0.008,0 -120.179,1.746 -121.18,2.413c-1.001,0.668 -2.105,3.8 -2.464,4.646c-0.359,0.847 -1.54,0.796 -1.694,1.027c-0.154,0.231 -1.514,12.86 -1.411,13.784c0.102,0.924 5.082,6.726 8.625,7.65c3.542,0.924 118.116,2.361 118.124,2.361" style="fill:#404041;"/><path d="M265.602,98.033c-5.98,0 -10.858,4.878 -10.858,10.858c0,5.981 4.878,10.858 10.858,10.858c5.98,0 10.858,-4.877 10.858,-10.858c0,-5.98 -4.878,-10.858 -10.858,-10.858" style="fill:#fff;"/><path d="M39.782,98.033c-5.981,0 -10.858,4.878 -10.858,10.858c0,5.981 4.877,10.858 10.858,10.858c5.98,0 10.858,-4.877 10.858,-10.858c0,-5.98 -4.878,-10.858 -10.858,-10.858" style="fill:#fff;"/><path d="M239.727,97.982c-5.98,0 -10.858,4.878 -10.858,10.858c0,5.98 4.878,10.858 10.858,10.858c5.981,0 10.858,-4.878 10.858,-10.858c0,-5.98 -4.877,-10.858 -10.858,-10.858" style="fill:#fff;"/><path d="M65.657,97.982c-5.981,0 -10.858,4.878 -10.858,10.858c0,5.98 4.877,10.858 10.858,10.858c5.98,0 10.858,-4.878 10.858,-10.858c0,-5.98 -4.878,-10.858 -10.858,-10.858" style="fill:#fff;"/><path d="M217.396,169.214l16.326,-26.645c-55.048,2.082 -107.013,2.082 -162.06,0l16.326,26.645c45.107,3.883 84.437,3.875 129.408,0" style="fill:#404041;"/><path d="M224.872,78.396c0,0 -2.927,-9.036 -4.261,-9.652c-1.335,-0.616 -50.414,-2.156 -58.166,-2.31c-7.744,-0.154 -9.749,0 -9.753,0c-0.004,0 -2.009,-0.154 -9.753,0c-7.752,0.154 -56.831,1.694 -58.166,2.31c-1.335,0.616 -4.261,9.652 -4.261,9.652l44.408,-1.284l1.694,2.67l26.078,0.205l26.078,-0.205l1.695,-2.67l44.407,1.284Z" style="fill:#404041;"/><path d="M152.76,119.723c0,0 59.535,-0.94 61.075,-1.938c0.239,-0.155 1.104,-1.047 1.154,-1.829c0.25,-3.912 0.582,-15.344 -0.461,-16.755c-1.387,-1.878 -2.284,-2.143 -2.284,-2.143c0,0 -58.729,-1.234 -59.552,-0.94c-0.824,-0.294 -59.552,0.94 -59.552,0.94c0,0 -0.898,0.265 -2.285,2.143c-1.043,1.411 -0.711,12.843 -0.46,16.755c0.05,0.782 0.915,1.674 1.154,1.829c1.54,0.998 61.074,1.938 61.074,1.938c0.024,-0.008 0.045,-0.018 0.069,-0.026c0.023,0.008 0.045,0.018 0.068,0.026" style="fill:#231f20;"/><g><clipPath id="_clip2"><path d="M152.692,119.698c0.024,0.008 0.045,0.018 0.068,0.026c0,0 59.535,-0.94 61.075,-1.939c0.239,-0.155 1.104,-1.046 1.153,-1.829c0.252,-3.912 0.584,-15.343 -0.459,-16.755c-1.387,-1.877 -2.285,-2.143 -2.285,-2.143c0,0 -58.728,-1.233 -59.552,-0.94c-0.824,-0.293 -59.553,0.94 -59.553,0.94c0,0 -0.896,0.266 -2.284,2.143c-1.042,1.412 -0.711,12.843 -0.46,16.755c0.05,0.783 0.916,1.674 1.154,1.829c1.54,0.999 61.075,1.939 61.075,1.939c0.023,-0.008 0.045,-0.018 0.068,-0.026Z" clip-rule="nonzero"/></clipPath><g clip-path="url(#_clip2)"><rect x="84.386" y="115.497" width="136.611" height="1.643" style="fill:#808184;"/><rect x="84.386" y="111.287" width="136.611" height="1.642" style="fill:#808184;"/><rect x="84.386" y="107.077" width="136.611" height="1.643" style="fill:#808184;"/><rect x="84.386" y="102.867" width="136.611" height="1.643" style="fill:#808184;"/><rect x="84.386" y="98.658" width="136.611" height="1.642" style="fill:#808184;"/></g></g><path d="M199.154,96.005l-1.592,0c-0.706,0 -1.283,-0.577 -1.283,-1.283l0,-18.996c0,-0.706 0.577,-1.283 1.283,-1.283l1.592,0c0.706,0 1.283,0.577 1.283,1.283l0,18.996c0,0.706 -0.577,1.283 -1.283,1.283" style="fill:#d0d2d3;"/><path d="M106.23,96.005l1.592,0c0.706,0 1.283,-0.577 1.283,-1.283l0,-18.996c0,-0.706 -0.577,-1.283 -1.283,-1.283l-1.592,0c-0.706,0 -1.283,0.577 -1.283,1.283l0,18.996c0,0.706 0.577,1.283 1.283,1.283" style="fill:#d0d2d3;"/><path d="M200.438,91.976c33.66,0.558 72.864,1.288 73.434,1.668c1.002,0.667 2.106,3.799 2.465,4.646c0.359,0.847 1.54,0.795 1.694,1.026c0,0 1.791,-0.894 2.755,-1.26c-0.089,-1.119 -0.147,-1.852 -0.147,-1.948c0,-0.463 -4.671,-12.732 -6.878,-15.35c-2.072,-2.458 -4.099,-2.157 -4.34,-2.11c-0.016,0.003 -0.024,0.005 -0.024,0.005c0,0 -0.984,-0.206 -3.294,0.05c-1.113,0.124 -21.01,-0.24 -41.344,-0.652c0.073,0.22 0.113,0.345 0.113,0.345l-24.434,-0.706l0,14.286Z" style="fill:#bbbdbf;"/><path d="M104.946,91.976c-33.66,0.558 -72.864,1.288 -73.434,1.668c-1.001,0.667 -2.105,3.799 -2.465,4.646c-0.359,0.847 -1.54,0.795 -1.694,1.026c0,0 -1.791,-0.894 -2.755,-1.26c0.089,-1.119 0.147,-1.852 0.147,-1.948c0,-0.463 4.671,-12.732 6.878,-15.35c2.072,-2.458 4.099,-2.157 4.34,-2.11c0.016,0.003 0.024,0.005 0.024,0.005c0,0 0.984,-0.206 3.294,0.05c1.113,0.124 21.01,-0.24 41.344,-0.652c-0.073,0.22 -0.113,0.345 -0.113,0.345l24.434,-0.706l0,14.286Z" style="fill:#bbbdbf;"/><path d="M196.279,91.908l0,-14.338l-15.814,-0.457l-1.695,2.67l-26.078,0.205l0,11.243c0,0 19.909,0.289 43.587,0.677" style="fill:#bbbdbf;"/><path d="M109.105,91.908l0,-14.338l15.815,-0.457l1.694,2.67l26.078,0.205l0,11.243c0,0 -19.908,0.289 -43.587,0.677" style="fill:#bbbdbf;"/><path d="M226.351,129.683c0,0 44.938,0.77 45.248,0.873c0.013,0.004 0.026,0.009 0.04,0.015c0.005,-0.005 0.01,-0.01 0.015,-0.015c1.436,-1.531 3.596,-4.844 5.544,-8.155l-6.381,-1.651c-3.543,0.924 -118.116,2.362 -118.125,2.362c-0.009,0 -114.582,-1.438 -118.125,-2.362l-6.381,1.651c1.948,3.311 4.108,6.624 5.544,8.155c0.257,0.273 0.69,0.576 1.27,0.902l52.555,-0.851l138.796,-0.924Zm-73.659,-6.571l-0.001,0l0,0.001l0.001,0l0,-0.001Z" style="fill:#848589;"/><path d="M87.988,169.214c26.13,2.249 50.321,3.193 74.793,2.836l-32.902,-26.364l-2.13,-1.706c-18.498,-0.223 -37.109,-0.693 -56.087,-1.411l16.326,26.645Z" style="fill:#6d6e70;"/></g></g></g></svg>