<?xml version="1.0" encoding="UTF-8" standalone="no"?><!DOCTYPE svg PUBLIC "-//W3C//DTD SVG 1.1//EN" "http://www.w3.org/Graphics/SVG/1.1/DTD/svg11.dtd"><svg width="500" height="500" viewBox="0 0 305 209" version="1.1" xmlns="http://www.w3.org/2000/svg" xmlns:xlink="http://www.w3.org/1999/xlink" xml:space="preserve" xmlns:serif="http://www.serif.com/" style="fill-rule:evenodd;clip-rule:evenodd;stroke-miterlimit:22.926;"><rect id="Artboard1" x="0" y="0" width="304.945" height="208.037" style="fill:none;"/><g id="BACKGROUND"></g><g><g id="OBJECTS"><path d="M48.016,118.209l13.216,0c6.34,0 11.528,5.187 11.528,11.528l0,45.755c0,6.34 -5.188,11.527 -11.528,11.527l-13.216,0c-6.34,0 -11.528,-5.187 -11.528,-11.527l0,-45.755c0,-6.341 5.188,-11.528 11.528,-11.528" style="fill:#404041;"/><path d="M243.771,118.209l13.216,0c6.34,0 11.528,5.187 11.528,11.528l0,45.755c0,6.34 -5.188,11.527 -11.528,11.527l-13.216,0c-6.341,0 -11.528,-5.187 -11.528,-11.527l0,-45.755c0,-6.341 5.187,-11.528 11.528,-11.528" style="fill:#404041;"/><path d="M237.271,64.418c0,0 0.264,-5.09 0.976,-5.907c0.712,-0.818 1.45,-1.055 2.004,-1.082c4.403,-0.209 15.914,0.076 18.329,4.616c0.659,1.239 1.372,3.006 1.134,5.406c-0.237,2.4 -1.661,3.217 -3.455,4.035c-1.793,0.818 -14.478,2.347 -15.164,2.136c-0.685,-0.211 -2.663,-1.793 -2.663,-1.793l-3.587,0.237l-2.716,-7.542l5.142,-0.106Z" style="fill:#c52c34;"/><path d="M237.271,64.418c0,0 0.264,-5.09 0.976,-5.907c0.712,-0.818 1.45,-1.055 2.004,-1.082c4.403,-0.209 15.914,0.076 18.329,4.616c0.587,1.103 1.216,2.625 1.179,4.639l-19.3,1.699l-3.188,-3.965Z" style="fill:#ec1c24;"/><path d="M67.756,64.418c0,0 -0.263,-5.09 -0.976,-5.907c-0.712,-0.818 -1.45,-1.055 -2.004,-1.082c-4.402,-0.209 -15.914,0.076 -18.329,4.616c-0.659,1.239 -1.371,3.006 -1.134,5.406c0.237,2.4 1.661,3.217 3.455,4.035c1.793,0.818 14.478,2.347 15.164,2.136c0.685,-0.211 2.664,-1.793 2.664,-1.793l3.586,0.237l2.717,-7.542l-5.143,-0.106Z" style="fill:#c52c34;"/><path d="M67.756,64.418c0,0 -0.263,-5.09 -0.976,-5.907c-0.712,-0.818 -1.45,-1.055 -2.004,-1.082c-4.402,-0.209 -15.914,0.076 -18.329,4.616c-0.587,1.103 -1.216,2.625 -1.179,4.639l19.301,1.699l3.187,-3.965Z" style="fill:#ec1c24;"/><path d="M100.282,30.33c-11.077,2.005 -12.237,2.532 -14.347,4.958c-2.109,2.426 -18.276,37.291 -18.276,37.291c0,0 -19.49,10.654 -20.439,12.184c-0.949,1.529 -6.963,10.285 -7.701,12.289c-0.738,2.005 -2.743,27.322 -1.161,41.458c1.583,14.135 3.376,26.477 4.853,28.271c1.477,1.793 9.072,5.169 13.08,6.013c11.226,2.363 181.534,2.363 192.759,0c4.009,-0.844 11.604,-4.22 13.081,-6.013c1.477,-1.794 3.27,-14.136 4.852,-28.271c1.583,-14.136 -0.422,-39.453 -1.16,-41.458c-0.739,-2.004 -6.752,-10.76 -7.701,-12.289c-0.95,-1.53 -20.439,-12.184 -20.439,-12.184c0,0 -16.167,-34.865 -18.277,-37.291c-2.109,-2.426 -3.27,-2.953 -14.346,-4.958c-19.011,-3.44 -85.768,-3.44 -104.778,0" style="fill:#ec1c24;"/><path d="M98.476,174.253c32.014,0.414 75.628,0.416 107.785,0.008c-4.343,-2.569 -11.862,-6.681 -11.862,-6.681l-42.037,-0.053l-42.038,0.053c0,0 -7.504,4.103 -11.848,6.673" style="fill:#91272b;"/><path d="M49.284,83.184c-1.134,0.741 -1.895,1.306 -2.064,1.578c-0.95,1.53 -6.963,10.286 -7.701,12.29c-0.739,2.004 -2.743,27.322 -1.161,41.457c1.583,14.136 3.376,26.478 4.853,28.272c0,0 3.921,-4.048 3.921,-6.369c0,-2.321 0.613,-43.449 0.613,-43.449c0,0 8.353,-24.486 8.353,-25.541c0,-0.521 -3.341,-4.409 -6.814,-8.238" style="fill:#ca2b35;"/><path d="M256.058,83.184c1.133,0.741 1.895,1.306 2.064,1.578c0.95,1.53 6.963,10.286 7.701,12.29c0.739,2.004 2.743,27.322 1.161,41.457c-1.582,14.136 -3.376,26.478 -4.853,28.272c0,0 -3.921,-4.048 -3.921,-6.369c0,-2.321 -0.613,-43.449 -0.613,-43.449c0,0 -8.353,-24.486 -8.353,-25.541c0,-0.521 3.341,-4.409 6.814,-8.238" style="fill:#ca2b35;"/><path d="M152.671,106.016l0,-49.526l-80.583,15.377l-4.429,0.712c0,0 6.349,1.556 13.101,8.94c6.751,7.384 17.651,23.395 17.145,23.26c-0.505,-0.135 7.783,1.574 7.783,1.574l46.983,-0.337Z" style="fill:#ec1c24;"/><path d="M152.671,106.016l0,-49.526l80.583,15.377l4.429,0.712c0,0 -6.35,1.556 -13.101,8.94c-6.751,7.384 -17.651,23.395 -17.145,23.26c0.505,-0.135 -7.784,1.574 -7.784,1.574l-46.982,-0.337Z" style="fill:#ec1c24;"/><path d="M93.871,35.024c-5.525,2.034 -7.753,5.855 -8.861,7.384c-1.108,1.53 -12.923,29.458 -12.923,29.458c0,0 19.515,-1.74 44.305,-2.689c25.371,-0.972 47.187,-0.972 72.557,0c24.79,0.949 44.305,2.689 44.305,2.689c0,0 -11.815,-27.928 -12.923,-29.458c-1.107,-1.529 -3.354,-5.299 -8.861,-7.384c-15.823,-5.989 -100.656,-6.235 -117.599,0" style="fill:#404041;"/><path d="M53.83,114.577l-6.085,2.387l-0.024,1.571l54.423,8.701l-41.688,-8.215l-6.626,-4.444Z" style="fill:#eb3e4a;"/><path d="M251.511,114.577l6.085,2.387l0.024,1.571l-54.423,8.701l41.688,-8.215l6.626,-4.444Z" style="fill:#eb3e4a;"/><path d="M51.991,98.239c-0.95,-0.053 -1.635,-0.264 -2.637,0.791c-1.002,1.055 -2.269,17.458 -1.609,17.933c0.659,0.475 11.524,1.899 12.711,2.057c1.187,0.158 26.952,-3.903 27.586,-4.166c0.632,-0.264 10.39,-9.758 9.863,-10.075c-0.821,-0.492 -41.793,-6.68 -45.914,-6.54" style="fill:#404041;"/><path d="M50.03,99.594c-0.102,0.204 -0.203,0.677 -0.248,0.882c-0.142,0.654 -0.248,1.323 -0.344,1.985c-0.265,1.832 -0.453,3.688 -0.611,5.532c-0.16,1.862 -0.291,3.738 -0.356,5.607c-0.023,0.674 -0.04,1.353 -0.025,2.027c0.003,0.158 0.005,0.433 0.026,0.664c0.132,0.033 0.269,0.06 0.37,0.082c0.473,0.103 0.952,0.19 1.43,0.273c1.318,0.231 2.645,0.432 3.969,0.626c2.101,0.309 4.205,0.594 6.309,0.874c0.135,0.004 0.307,-0.017 0.44,-0.029c0.335,-0.03 0.669,-0.069 1.003,-0.109c1.054,-0.126 2.108,-0.271 3.16,-0.419c2.996,-0.42 5.988,-0.872 8.978,-1.333c3.029,-0.466 6.058,-0.943 9.082,-1.44c1.049,-0.172 2.099,-0.346 3.146,-0.529c0.326,-0.058 0.651,-0.115 0.976,-0.177c0.11,-0.021 0.234,-0.042 0.348,-0.069c0.17,-0.123 0.368,-0.309 0.514,-0.438c0.398,-0.353 0.789,-0.715 1.176,-1.079c1.083,-1.014 2.148,-2.05 3.2,-3.096c1.024,-1.018 2.044,-2.049 3.027,-3.106c0.295,-0.318 0.589,-0.639 0.873,-0.967c-0.412,-0.078 -0.825,-0.151 -1.237,-0.224c-1.75,-0.306 -3.506,-0.59 -5.262,-0.87c-5.074,-0.81 -10.158,-1.574 -15.244,-2.314c-4.856,-0.706 -9.72,-1.394 -14.589,-2.012c-1.763,-0.223 -3.531,-0.441 -5.3,-0.62c-0.595,-0.061 -1.192,-0.118 -1.789,-0.16c-0.334,-0.023 -0.696,-0.05 -1.031,-0.038l-0.039,0.001l-0.039,-0.003c-0.907,-0.05 -1.238,-0.213 -1.913,0.479" style="fill:#e6e7e8;"/><path d="M61.907,115.064c3.878,0 7.042,-3.163 7.042,-7.041c0,-3.879 -3.164,-7.042 -7.042,-7.042c-3.878,0 -7.041,3.163 -7.041,7.042c0,3.878 3.163,7.041 7.041,7.041" style="fill:#fff;"/><path d="M152.671,102.3c-0.004,0 -39.392,0.264 -42.398,1.055c-3.007,0.791 -8.703,6.804 -9.283,8.334c-0.58,1.529 10.232,41.035 12.025,43.725c1.794,2.69 5.222,3.639 6.646,3.639l33.01,0.001l33.01,-0.001c1.424,0 4.852,-0.949 6.646,-3.639c1.793,-2.69 12.605,-42.196 12.025,-43.725c-0.58,-1.53 -6.276,-7.543 -9.283,-8.334c-3.006,-0.791 -42.394,-1.055 -42.398,-1.055" style="fill:#d0d2d3;"/><path d="M152.671,104.023c-7.09,0.081 -14.176,0.131 -21.266,0.25c-4.537,0.077 -9.078,0.164 -13.613,0.319c-1.612,0.055 -3.226,0.116 -4.835,0.216c-0.61,0.038 -1.666,0.068 -2.246,0.213c-1.247,0.329 -3.279,2.067 -4.228,2.935c-0.925,0.846 -1.822,1.755 -2.644,2.702c-0.275,0.318 -0.856,0.989 -1.134,1.45c0.019,0.177 0.054,0.369 0.079,0.519c0.091,0.547 0.201,1.093 0.315,1.635c0.355,1.685 0.759,3.366 1.171,5.038c1.157,4.704 2.41,9.393 3.697,14.064c1.283,4.659 2.605,9.317 4.022,13.938c0.505,1.644 1.02,3.294 1.584,4.919c0.202,0.582 0.567,1.734 0.876,2.239c0.662,0.993 1.666,1.726 2.742,2.216c0.669,0.305 1.724,0.656 2.47,0.656l66.02,0c0.746,0 1.801,-0.351 2.471,-0.656c1.076,-0.49 2.08,-1.223 2.736,-2.208c0.315,-0.513 0.679,-1.665 0.881,-2.247c0.564,-1.625 1.08,-3.275 1.584,-4.919c1.418,-4.621 2.739,-9.279 4.023,-13.938c1.286,-4.671 2.539,-9.36 3.697,-14.064c0.411,-1.672 0.815,-3.353 1.17,-5.038c0.115,-0.542 0.225,-1.088 0.315,-1.635c0.025,-0.15 0.06,-0.342 0.08,-0.519c-0.279,-0.461 -0.859,-1.132 -1.135,-1.45c-0.821,-0.947 -1.718,-1.856 -2.643,-2.702c-0.949,-0.868 -2.981,-2.606 -4.227,-2.934c-0.581,-0.146 -1.637,-0.176 -2.247,-0.214c-1.609,-0.1 -3.224,-0.161 -4.835,-0.216c-4.535,-0.155 -9.076,-0.242 -13.614,-0.319c-7.09,-0.119 -14.176,-0.167 -21.266,-0.25" style="fill:#404041;"/><g><clipPath id="_clip1"><path d="M131.404,104.273c-4.537,0.077 -9.078,0.164 -13.613,0.319c-1.611,0.055 -3.226,0.116 -4.835,0.216c-0.61,0.038 -1.665,0.068 -2.245,0.212c-1.248,0.329 -3.28,2.068 -4.229,2.936c-0.925,0.845 -1.821,1.754 -2.643,2.702c-0.276,0.318 -0.856,0.988 -1.135,1.449c0.02,0.177 0.055,0.37 0.08,0.52c0.09,0.546 0.201,1.093 0.315,1.634c0.355,1.686 0.759,3.366 1.171,5.039c1.157,4.704 2.409,9.393 3.696,14.063c1.284,4.659 2.606,9.318 4.022,13.938c0.505,1.645 1.021,3.294 1.584,4.92c0.203,0.582 0.567,1.733 0.876,2.238c0.662,0.993 1.666,1.726 2.742,2.217c0.67,0.304 1.725,0.656 2.471,0.656l66.019,0c0.747,0 1.802,-0.352 2.472,-0.656c1.076,-0.491 2.08,-1.224 2.736,-2.208c0.314,-0.514 0.678,-1.665 0.881,-2.247c0.564,-1.626 1.08,-3.275 1.584,-4.92c1.417,-4.62 2.738,-9.279 4.022,-13.938c1.287,-4.67 2.54,-9.359 3.697,-14.063c0.411,-1.673 0.815,-3.353 1.171,-5.039c0.114,-0.541 0.225,-1.088 0.315,-1.634c0.025,-0.15 0.06,-0.343 0.079,-0.52c-0.278,-0.461 -0.858,-1.131 -1.135,-1.449c-0.821,-0.948 -1.718,-1.857 -2.642,-2.702c-0.95,-0.868 -2.982,-2.607 -4.228,-2.935c-0.581,-0.145 -1.637,-0.175 -2.247,-0.213c-1.608,-0.1 -3.224,-0.161 -4.834,-0.216c-4.536,-0.155 -9.077,-0.242 -13.614,-0.319c-7.09,-0.119 -14.177,-0.167 -21.267,-0.251c-7.089,0.082 -14.175,0.132 -21.266,0.251Z" clip-rule="nonzero"/></clipPath><g clip-path="url(#_clip1)"><rect x="91.54" y="106.414" width="122.262" height="2.11" style="fill:#d0d2d3;stroke:#231f20;stroke-width:0.5px;"/><rect x="91.54" y="112.216" width="122.262" height="2.11" style="fill:#d0d2d3;stroke:#231f20;stroke-width:0.5px;"/><rect x="91.54" y="118.018" width="122.262" height="2.11" style="fill:#d0d2d3;stroke:#231f20;stroke-width:0.5px;"/><rect x="91.54" y="123.82" width="122.262" height="2.11" style="fill:#d0d2d3;stroke:#231f20;stroke-width:0.5px;"/><rect x="91.54" y="129.622" width="122.262" height="2.11" style="fill:#d0d2d3;stroke:#231f20;stroke-width:0.5px;"/><rect x="91.54" y="135.424" width="122.262" height="2.11" style="fill:#d0d2d3;stroke:#231f20;stroke-width:0.5px;"/><rect x="91.54" y="141.226" width="122.262" height="2.11" style="fill:#d0d2d3;stroke:#231f20;stroke-width:0.5px;"/><rect x="91.54" y="147.028" width="122.262" height="2.11" style="fill:#d0d2d3;stroke:#231f20;stroke-width:0.5px;"/><rect x="91.54" y="152.829" width="122.262" height="2.11" style="fill:#d0d2d3;stroke:#231f20;stroke-width:0.5px;"/></g></g><path d="M100.053,144.421c0.913,2.419 1.765,4.905 2.522,7.376c0.595,1.938 2.063,6.584 1.334,8.499c-0.642,1.684 -2.789,2.859 -4.336,3.593c-1.439,0.682 -3.045,1.298 -4.574,1.762l-0.26,0.079l-0.272,-0.006c-7.34,-0.147 -14.687,-0.357 -22.023,-0.633c-4.868,-0.182 -9.753,-0.385 -14.612,-0.724c-1.702,-0.118 -3.424,-0.248 -5.117,-0.463c-0.923,-0.117 -2.455,-0.288 -3.187,-0.891c-2.177,-1.792 -1.867,-7.426 -1.666,-9.963c0.159,-2.007 0.441,-4.121 0.936,-6.074c0.599,-2.367 1.759,-6.331 4.473,-7.085c0.597,-0.166 2.078,-0.026 2.714,0.012c1.709,0.101 3.418,0.226 5.125,0.353c5.042,0.373 10.083,0.781 15.122,1.192c7.456,0.609 14.911,1.232 22.364,1.87l1.076,0.093l0.381,1.01Z" style="fill:#9c292d;"/><path d="M205.289,144.421c-0.913,2.419 -1.765,4.905 -2.523,7.376c-0.594,1.938 -2.062,6.584 -1.333,8.499c0.642,1.684 2.788,2.859 4.336,3.593c1.439,0.682 3.045,1.298 4.574,1.762l0.26,0.079l0.272,-0.006c7.34,-0.147 14.687,-0.357 22.023,-0.633c4.868,-0.182 9.753,-0.385 14.612,-0.724c1.702,-0.118 3.424,-0.248 5.117,-0.463c0.923,-0.117 2.455,-0.288 3.187,-0.891c2.177,-1.792 1.867,-7.426 1.666,-9.963c-0.159,-2.007 -0.442,-4.121 -0.936,-6.074c-0.599,-2.367 -1.759,-6.331 -4.473,-7.085c-0.597,-0.166 -2.078,-0.026 -2.714,0.012c-1.709,0.101 -3.418,0.226 -5.125,0.353c-5.042,0.373 -10.083,0.781 -15.122,1.192c-7.456,0.609 -14.911,1.232 -22.364,1.87l-1.076,0.093l-0.381,1.01Z" style="fill:#9c292d;"/><path d="M98.45,145.026c0,0 4.702,12.445 3.858,14.66c-0.844,2.216 -7.806,4.326 -7.806,4.326c0,0 -42.091,-0.844 -43.884,-2.321c-1.793,-1.477 -1.266,-9.916 -0.159,-14.294c1.108,-4.378 2.321,-5.591 3.271,-5.855c0.949,-0.264 44.72,3.484 44.72,3.484" style="fill:#404041;"/><path d="M206.892,145.026c0,0 -4.702,12.445 -3.858,14.66c0.844,2.216 7.807,4.326 7.807,4.326c0,0 42.09,-0.844 43.883,-2.321c1.793,-1.477 1.266,-9.916 0.159,-14.294c-1.108,-4.378 -2.321,-5.591 -3.27,-5.855c-0.95,-0.264 -44.721,3.484 -44.721,3.484" style="fill:#404041;"/><path d="M61.72,159.791c4.154,0 7.542,-3.175 7.542,-7.068c0,-3.893 -3.388,-7.068 -7.542,-7.068c-4.154,0 -7.543,3.175 -7.543,7.068c0,3.893 3.389,7.068 7.543,7.068" style="fill:#e6e7e8;"/><path d="M243.623,159.791c4.154,0 7.542,-3.175 7.542,-7.068c0,-3.893 -3.388,-7.068 -7.542,-7.068c-4.154,0 -7.543,3.175 -7.543,7.068c0,3.893 3.389,7.068 7.543,7.068" style="fill:#e6e7e8;"/><path d="M67.659,72.579c0,0 -19.49,10.654 -20.439,12.184c0,0 0.916,4.918 1.654,8.558c0.386,1.903 0.816,3.791 1.137,5.159c0.679,-0.415 1.252,-0.281 1.98,-0.241c4.103,-0.139 44.723,5.992 45.9,6.533c0.007,0.001 0.016,0.002 0.028,0.004c0.206,-0.281 -10.497,-15.97 -17.159,-23.257c-6.752,-7.384 -13.101,-8.94 -13.101,-8.94" style="fill:#ed333f;"/><path d="M237.683,72.579c0,0 19.49,10.654 20.439,12.184c0,0 -0.916,4.918 -1.654,8.558c-0.386,1.903 -0.816,3.791 -1.138,5.159c-0.679,-0.415 -1.251,-0.281 -1.979,-0.241c-4.103,-0.139 -44.722,5.992 -45.901,6.533c-0.006,0.001 -0.015,0.002 -0.027,0.004c-0.206,-0.281 10.497,-15.97 17.159,-23.257c6.751,-7.384 13.101,-8.94 13.101,-8.94" style="fill:#ed333f;"/><path d="M253.35,98.239c0.949,-0.053 1.635,-0.264 2.637,0.791c1.002,1.055 2.269,17.458 1.609,17.933c-0.659,0.475 -11.525,1.899 -12.711,2.057c-1.187,0.158 -26.953,-3.903 -27.586,-4.166c-0.632,-0.264 -10.39,-9.758 -9.863,-10.075c0.821,-0.492 41.793,-6.68 45.914,-6.54" style="fill:#404041;"/><path d="M255.312,99.594c0.102,0.204 0.203,0.677 0.248,0.882c0.142,0.654 0.248,1.323 0.344,1.985c0.265,1.832 0.452,3.688 0.611,5.532c0.16,1.862 0.29,3.738 0.355,5.607c0.023,0.674 0.04,1.353 0.026,2.027c-0.004,0.158 -0.006,0.433 -0.026,0.664c-0.132,0.033 -0.27,0.06 -0.37,0.082c-0.473,0.103 -0.953,0.19 -1.43,0.273c-1.319,0.231 -2.645,0.432 -3.969,0.626c-2.101,0.309 -4.205,0.594 -6.31,0.874c-0.135,0.004 -0.307,-0.017 -0.439,-0.029c-0.335,-0.03 -0.67,-0.069 -1.003,-0.109c-1.055,-0.126 -2.108,-0.271 -3.16,-0.419c-2.996,-0.42 -5.989,-0.872 -8.978,-1.333c-3.029,-0.466 -6.058,-0.943 -9.082,-1.44c-1.049,-0.172 -2.099,-0.346 -3.147,-0.529c-0.325,-0.058 -0.651,-0.115 -0.975,-0.177c-0.11,-0.021 -0.234,-0.042 -0.348,-0.069c-0.17,-0.123 -0.368,-0.309 -0.514,-0.438c-0.398,-0.353 -0.789,-0.715 -1.177,-1.079c-1.082,-1.014 -2.147,-2.05 -3.199,-3.096c-1.024,-1.018 -2.044,-2.049 -3.027,-3.106c-0.295,-0.318 -0.59,-0.639 -0.873,-0.967c0.411,-0.078 0.824,-0.151 1.237,-0.224c1.75,-0.306 3.506,-0.59 5.262,-0.87c5.074,-0.81 10.158,-1.574 15.243,-2.314c4.857,-0.706 9.721,-1.394 14.589,-2.012c1.764,-0.223 3.531,-0.441 5.3,-0.62c0.595,-0.061 1.193,-0.118 1.79,-0.16c0.334,-0.023 0.696,-0.05 1.031,-0.038l0.039,0.001l0.039,-0.003c0.907,-0.05 1.237,-0.213 1.913,0.479" style="fill:#e6e7e8;"/><path d="M243.436,115.064c3.878,0 7.041,-3.163 7.041,-7.041c0,-3.879 -3.163,-7.042 -7.041,-7.042c-3.878,0 -7.042,3.163 -7.042,7.042c0,3.878 3.164,7.041 7.042,7.041" style="fill:#fff;"/><path d="M211.47,35.024c-9.844,-3.726 -46.401,-5.229 -76.701,-4.332l27.659,27.66l10.327,10.327c5.278,0.119 10.651,0.285 16.194,0.498c24.79,0.949 44.305,2.689 44.305,2.689c0,0 -11.815,-27.928 -12.923,-29.458c-1.107,-1.529 -3.354,-5.299 -8.861,-7.384" style="fill:#6d6e70;"/></g></g></svg>